<?xml version="1.0" encoding="UTF-8"?>
<!DOCTYPE svg PUBLIC "-//W3C//DTD SVG 1.1//EN" "http://www.w3.org/Graphics/SVG/1.1/DTD/svg11.dtd">
<!-- Creator: CorelDRAW X8 -->
<svg xmlns="http://www.w3.org/2000/svg" xml:space="preserve" width="76px" height="76px" version="1.1" style="shape-rendering:geometricPrecision; text-rendering:geometricPrecision; image-rendering:optimizeQuality; fill-rule:evenodd; clip-rule:evenodd"
viewBox="0 0 76 76"
 xmlns:xlink="http://www.w3.org/1999/xlink">
 <defs>
  <style type="text/css">
   <![CDATA[
    .fil0 {fill:white}
    .fil1 {fill:url(#id0)}
   ]]>
  </style>
  <linearGradient id="id0" gradientUnits="userSpaceOnUse" x1="13.1955" y1="38.0001" x2="62.8045" y2="38.0001">
   <stop offset="0" style="stop-opacity:1; stop-color:#303F9F"/>
   <stop offset="0.65098" style="stop-opacity:1; stop-color:#1A74C9"/>
   <stop offset="1" style="stop-opacity:1; stop-color:#03A9F4"/>
  </linearGradient>
 </defs>
 <g id="Camada_x0020_1">
  <metadata id="CorelCorpID_0Corel-Layer"/>
  <circle class="fil0" cx="38" cy="38" r="38"/>
  <path class="fil1" d="M19 11c0,0 0,0 0,0 0,0 0,0 0,0 0,0 -1,0 0,1 0,0 0,0 0,0 0,0 0,0 0,0 0,0 0,0 0,0 -1,13 -1,27 -2,41 0,1 1,1 -1,1 -1,0 -1,0 -2,0 0,0 0,0 -1,0 0,0 0,0 0,1 0,1 0,12 0,12 0,0 0,0 0,0 0,0 1,0 1,0 0,0 0,0 0,0 17,0 32,0 49,0 0,-10 0,-11 0,-16 0,0 0,0 0,0 -4,-1 -8,-2 -12,-3 0,-2 0,-2 0,-4 0,0 0,0 0,0 0,0 0,0 0,0 0,0 0,0 -1,0l-1 0c0,0 0,0 0,0l0 0c0,0 0,0 0,0 -1,0 -2,-1 -3,-2l0 0c0,0 0,0 0,0l0 0c-1,1 -1,1 -2,1 0,1 0,1 0,1 0,0 0,0 -1,0 0,0 0,0 0,0l0 0 0 0 0 0 -2 0 0 0 -3 0c0,0 0,0 0,0 0,0 0,0 0,0 0,0 -3,-2 -3,-2 0,0 0,0 -1,0l0 0c0,0 0,0 0,0 -1,1 -5,3 -5,3l0 0c0,1 0,1 0,3 -2,0 -2,0 -3,1 -1,0 -1,0 -1,0 -1,0 -1,0 -1,0l0 -1c-1,-33 0,-4 -1,-36 -1,0 -1,0 -1,0 0,0 0,0 1,0 0,0 0,0 0,0l0 0c0,-1 0,-1 0,-1 0,0 0,0 -1,0 0,-2 0,-2 0,-2 0,0 0,0 0,0 -1,0 -2,0 -3,0 0,0 0,0 0,0l0 1c0,0 0,1 0,1z"/>
 </g>
</svg>
