<?xml version="1.0" encoding="UTF-8"?>
<!DOCTYPE svg PUBLIC "-//W3C//DTD SVG 1.1//EN" "http://www.w3.org/Graphics/SVG/1.1/DTD/svg11.dtd">
<!-- Creator: CorelDRAW X8 -->
<svg xmlns="http://www.w3.org/2000/svg" xml:space="preserve" width="1920px" height="226px" version="1.1" style="shape-rendering:geometricPrecision; text-rendering:geometricPrecision; image-rendering:optimizeQuality; fill-rule:evenodd; clip-rule:evenodd"
viewBox="0 0 1920 226"
 xmlns:xlink="http://www.w3.org/1999/xlink">
 <defs>
  <style type="text/css">
   <![CDATA[
    .str0 {stroke:#303F9F;stroke-width:0.225882}
    .fil5 {fill:none;fill-rule:nonzero}
    .fil4 {fill:#03A9F4;fill-rule:nonzero}
    .fil3 {fill:#303F9F;fill-rule:nonzero}
    .fil0 {fill:url(#id0)}
    .fil1 {fill:url(#id1);fill-rule:nonzero}
    .fil2 {fill:url(#id2);fill-rule:nonzero}
   ]]>
  </style>
  <linearGradient id="id0" gradientUnits="userSpaceOnUse" x1="601.751" y1="92.5451" x2="736.194" y2="92.5451">
   <stop offset="0" style="stop-opacity:1; stop-color:#303F9F"/>
   <stop offset="0.65098" style="stop-opacity:1; stop-color:#1A74C9"/>
   <stop offset="1" style="stop-opacity:1; stop-color:#03A9F4"/>
  </linearGradient>
  <linearGradient id="id1" gradientUnits="objectBoundingBox" x1="46.153%" y1="0%" x2="53.847%" y2="119.474%">
   <stop offset="0" style="stop-opacity:1; stop-color:#303F9F"/>
   <stop offset="0.254902" style="stop-opacity:1; stop-color:#1A74C9"/>
   <stop offset="0.490196" style="stop-opacity:1; stop-color:#00BCD4"/>
   <stop offset="1" style="stop-opacity:1; stop-color:#03A9F4"/>
  </linearGradient>
  <linearGradient id="id2" gradientUnits="objectBoundingBox" xlink:href="#id1" x1="41.479%" y1="0%" x2="58.5653%" y2="114.393%">
  </linearGradient>
 </defs>
 <g id="Camada_x0020_2">
  <metadata id="CorelCorpID_0Corel-Layer"/>
  <path class="fil0" d="M617 20c0,0 0,0 0,0 0,0 0,0 0,0 -1,1 -1,0 -1,1 0,0 0,0 1,0 0,0 0,0 0,1 0,0 0,0 0,0 -2,36 -3,75 -4,111 0,3 1,2 -4,2 -1,0 -3,0 -4,0 -1,0 -2,0 -3,1 0,0 0,1 0,1 0,3 0,34 0,34 0,0 0,0 0,1 0,0 1,0 1,0 0,0 1,0 1,0 45,0 86,0 132,0 0,-29 0,-29 0,-43 0,-2 0,-1 0,-2 -10,-2 -21,-6 -32,-9 0,-5 0,-5 0,-9 0,0 0,0 0,0 0,0 0,0 0,-1 1,0 -1,0 -1,0l-4 0c-1,0 0,0 -1,0l0 0c0,0 0,0 0,0 -2,-1 -4,-2 -6,-3l0 -1c-1,0 -1,0 -1,0l-1 1c-2,1 -2,1 -4,2 0,1 0,0 -1,1 0,0 0,0 -1,0 -1,0 -2,0 -2,0l0 2 0 0 0 0 -5 0 0 0 -8 0c0,0 0,0 0,-1 -1,0 -1,0 -1,0 0,0 -8,-4 -8,-5 0,0 0,0 -1,0l-1 0c-1,0 -1,0 -1,1 -1,0 -11,6 -12,6l0 1c0,2 0,3 0,7 -5,1 -7,2 -9,2 -1,1 -2,1 -3,1 -1,0 -2,1 -2,0l-1 -4c-3,-88 0,-10 -3,-95 0,0 0,0 0,0 0,-1 0,-1 0,-1 0,0 0,0 1,0l0 -1c0,0 0,-1 -1,-1 0,0 0,0 0,0 0,-6 0,-7 0,-7 0,0 0,0 -1,0 -4,0 -7,0 -8,0 -1,0 0,0 -1,1l0 3c0,1 0,2 0,3z"/>
  <path class="fil1" d="M69 171c-12,0 -23,-3 -32,-8 -10,-5 -17,-13 -22,-22 -5,-10 -7,-21 -7,-34l0 -5c0,-12 2,-23 7,-33 5,-10 12,-17 21,-23 9,-5 20,-8 32,-8 9,0 17,1 25,4 7,2 14,6 20,11l0 31 -19 0 -3 -19c-2,-2 -4,-3 -6,-4 -2,-1 -5,-2 -8,-2 -2,-1 -5,-1 -8,-1 -8,0 -14,2 -19,5 -5,4 -9,9 -12,16 -3,6 -4,14 -4,23l0 5c0,9 1,17 4,23 3,7 7,12 13,16 5,3 11,5 19,5 4,0 7,0 11,-1 4,-1 7,-2 10,-3l3 -19 19 0 0 31c-5,3 -11,6 -19,9 -7,2 -15,3 -25,3z"/>
  <path id="1" class="fil1" d="M118 169l0 -15 10 -2 41 -112 26 0 41 112 9 2 0 15 -44 0 0 -15 9 -2 -5 -18 -46 0 -5 18 8 2 0 15 -44 0zm47 -54l34 0 -16 -44 -1 -4 0 0 -2 4 -15 44z"/>
  <path id="2" class="fil1" d="M249 169l0 -15 13 -3 0 -93 -13 -2 0 -16 61 0c10,0 18,1 25,5 7,3 13,7 17,13 4,6 5,12 5,20 0,8 -1,15 -5,21 -4,6 -9,10 -16,14 -7,3 -15,5 -23,5l-25 0 0 33 14 3 0 15 -53 0zm83 0l-22 -56 23 -5 19 43 11 3 0 15 -31 0zm-44 -71l21 0c8,0 13,-1 17,-5 4,-3 6,-7 6,-13 0,-6 -2,-11 -6,-15 -3,-3 -9,-5 -16,-5l-22 0 0 38z"/>
  <polygon id="3" class="fil1" points="368,169 368,154 382,151 382,58 368,56 368,40 382,40 408,40 423,40 423,56 408,58 408,149 444,149 446,130 465,130 465,169 "/>
  <path id="4" class="fil1" d="M468 169l0 -15 9 -2 41 -112 27 0 41 112 9 2 0 15 -44 0 0 -15 9 -2 -6 -18 -45 0 -6 18 9 2 0 15 -44 0zm47 -54l33 0 -15 -44 -1 -4 -1 0 -1 4 -15 44z"/>
  <path class="fil2" d="M744 169l0 -17 42 -45c5,-5 8,-9 10,-13 3,-3 4,-7 5,-9 2,-3 2,-6 2,-9 0,-5 -1,-9 -4,-13 -3,-3 -7,-5 -13,-5 -6,0 -10,2 -14,6 -3,3 -4,9 -4,16l-25 0 0 -1c-1,-8 1,-15 5,-21 3,-6 8,-11 15,-15 6,-4 14,-5 23,-5 9,0 17,1 23,4 7,4 11,8 15,14 3,5 5,12 5,19 0,5 -1,10 -3,15 -2,4 -4,9 -8,14 -4,5 -9,11 -15,17l-26 27 1 1 33 0 1 -12 20 0 0 32 -88 0z"/>
  <path id="1" class="fil2" d="M885 171c-13,0 -24,-5 -32,-14 -7,-9 -11,-22 -11,-39l0 -28c0,-17 4,-30 11,-39 8,-9 19,-13 32,-13 14,0 24,4 32,13 8,9 12,22 12,39l0 28c0,17 -4,30 -12,39 -8,9 -18,14 -32,14zm0 -20c6,0 11,-3 14,-7 3,-5 4,-13 4,-23l0 -34c0,-10 -1,-18 -4,-22 -4,-5 -8,-7 -14,-7 -6,0 -10,2 -13,7 -3,4 -5,12 -5,22l0 34c0,10 2,18 5,23 3,4 7,7 13,7z"/>
  <path id="2" class="fil2" d="M938 169l0 -17 42 -45c4,-5 8,-9 10,-13 3,-3 4,-7 5,-9 1,-3 2,-6 2,-9 0,-5 -2,-9 -4,-13 -3,-3 -7,-5 -13,-5 -6,0 -11,2 -14,6 -3,3 -4,9 -4,16l-25 0 -1 -1c0,-8 2,-15 5,-21 4,-6 9,-11 16,-15 6,-4 14,-5 23,-5 9,0 17,1 23,4 6,4 11,8 15,14 3,5 5,12 5,19 0,5 -1,10 -3,15 -2,4 -5,9 -8,14 -4,5 -9,11 -16,17l-25 27 1 1 33 0 1 -12 20 0 0 32 -88 0z"/>
  <path id="3" class="fil2" d="M1034 169l0 -17 42 -45c4,-5 7,-9 10,-13 2,-3 4,-7 5,-9 1,-3 1,-6 1,-9 0,-5 -1,-9 -4,-13 -3,-3 -7,-5 -13,-5 -6,0 -10,2 -13,6 -3,3 -5,9 -5,16l-25 0 0 -1c0,-8 1,-15 5,-21 3,-6 8,-11 15,-15 7,-4 15,-5 24,-5 9,0 16,1 23,4 6,4 11,8 14,14 4,5 5,12 5,19 0,5 -1,10 -2,15 -2,4 -5,9 -9,14 -4,5 -9,11 -15,17l-25 27 0 1 33 0 2 -12 20 0 0 32 -88 0z"/>
  <polygon class="fil3" points="1160,97 1160,93 1163,93 1163,73 1160,72 1160,69 1171,69 1171,72 1168,73 1168,93 1171,93 1171,97 "/>
  <polygon id="1" class="fil3" points="1173,97 1173,93 1176,93 1176,73 1173,72 1173,69 1176,69 1182,69 1195,88 1195,88 1195,73 1191,72 1191,69 1200,69 1203,69 1203,72 1200,73 1200,97 1194,97 1182,77 1182,77 1182,93 1185,93 1185,97 "/>
  <path id="2" class="fil3" d="M1214 97l0 -4 3 0 0 -20 -3 -1 0 -3 3 0 11 0c2,0 4,0 5,1 2,0 3,2 4,3 1,1 1,3 1,5 0,1 0,3 -1,4 -1,2 -2,3 -4,3 -1,1 -3,2 -5,2l-5 0 0 6 3 0 0 4 -12 0zm9 -15l5 0c1,0 3,0 3,-1 1,-1 2,-2 2,-3 0,-2 -1,-3 -2,-4 0,-1 -2,-1 -3,-1l-5 0 0 9z"/>
  <polygon id="3" class="fil3" points="1240,97 1240,93 1243,93 1243,73 1240,72 1240,69 1262,69 1262,76 1258,76 1258,73 1249,73 1249,80 1258,80 1258,84 1249,84 1249,93 1258,93 1258,89 1263,89 1263,97 "/>
  <path id="4" class="fil3" d="M1266 97l0 -4 3 0 0 -20 -3 -1 0 -3 13 0c2,0 4,0 6,1 1,0 2,1 3,2 1,2 2,3 2,5 0,2 -1,3 -2,4 -1,2 -2,3 -3,4 -2,0 -3,1 -5,1l-6 0 0 7 3 0 0 4 -11 0zm18 0l-5 -12 5 -2 4 10 3 0 0 4 -7 0zm-10 -16l5 0c2,0 3,0 4,-1 0,0 1,-1 1,-3 0,-1 -1,-2 -1,-3 -1,-1 -2,-1 -4,-1l-5 0 0 8z"/>
  <path id="5" class="fil3" d="M1305 97c-3,0 -4,0 -6,0 -2,-1 -4,-2 -5,-3l0 -7 4 0 1 4c0,1 1,1 2,2 1,0 2,0 4,0 1,0 1,0 2,0 1,-1 1,-1 2,-2 0,0 0,-1 0,-2 0,0 0,-1 0,-1 0,-1 -1,-1 -2,-2 -1,0 -2,-1 -3,-1 -2,-1 -4,-1 -5,-2 -2,-1 -3,-2 -4,-3 0,-1 -1,-2 -1,-4 0,-1 1,-3 1,-4 1,-1 2,-2 4,-3 1,0 3,-1 5,-1 2,0 4,0 6,1 2,0 3,1 4,2l0 7 -4 0 -1 -4c0,-1 -1,-1 -2,-1 -1,0 -1,0 -3,0 0,0 -1,0 -2,0 -1,0 -1,1 -2,1 0,1 0,1 0,2 0,1 0,1 0,2 1,0 1,1 2,1 1,0 2,1 4,1 3,1 5,2 7,4 1,1 2,3 2,5 0,2 0,3 -1,5 -1,1 -2,2 -4,2 -1,1 -3,1 -5,1z"/>
  <path id="6" class="fil3" d="M1330 97c-2,0 -3,0 -5,-1 -2,0 -3,-1 -4,-3 -1,-1 -2,-3 -3,-4 0,-2 -1,-4 -1,-6l0 0c0,-3 1,-4 1,-6 1,-2 2,-3 3,-5 1,-1 2,-2 4,-3 2,0 3,-1 5,-1 2,0 4,1 5,1 2,1 3,2 5,3 1,2 2,3 2,5 1,2 1,3 1,6l0 0c0,2 0,4 -1,6 0,1 -1,3 -2,4 -2,2 -3,3 -4,3 -2,1 -4,1 -6,1zm0 -4c2,0 3,-1 4,-1 1,-1 2,-2 3,-4 0,-1 0,-3 0,-5l0 -1c0,-1 0,-3 0,-5 -1,-1 -2,-2 -3,-3 -1,-1 -2,-1 -4,-1 -1,0 -3,0 -4,1 -1,1 -2,2 -2,3 -1,2 -1,3 -1,5l0 1c0,2 0,4 1,5 0,2 1,3 2,4 1,0 3,1 4,1z"/>
  <polygon id="7" class="fil3" points="1345,97 1345,93 1348,93 1348,73 1345,72 1345,69 1348,69 1354,69 1367,88 1367,88 1367,73 1363,72 1363,69 1372,69 1375,69 1375,72 1372,73 1372,97 1366,97 1354,77 1354,77 1354,93 1357,93 1357,97 "/>
  <polygon id="8" class="fil3" points="1388,102 1388,69 1391,69 1391,102 "/>
  <path id="9" class="fil4" d="M1404 97l0 -4 3 0 0 -20 -3 -1 0 -3 3 0 11 0c2,0 4,0 6,1 1,0 2,2 3,3 1,1 1,3 1,5 0,1 0,3 -1,4 -1,2 -2,3 -3,3 -2,1 -4,2 -6,2l-5 0 0 6 3 0 0 4 -12 0zm9 -15l5 0c2,0 3,0 4,-1 0,-1 1,-2 1,-3 0,-2 -1,-3 -1,-4 -1,-1 -2,-1 -4,-1l-5 0 0 9z"/>
  <path id="10" class="fil4" d="M1443 97c-2,0 -3,0 -5,-1 -2,0 -3,-1 -4,-3 -1,-1 -2,-3 -3,-4 0,-2 -1,-4 -1,-6l0 0c0,-3 1,-4 1,-6 1,-2 2,-3 3,-5 1,-1 2,-2 4,-3 2,0 3,-1 5,-1 2,0 4,1 5,1 2,1 3,2 5,3 1,2 2,3 2,5 1,2 1,3 1,6l0 0c0,2 0,4 -1,6 0,1 -1,3 -2,4 -2,2 -3,3 -5,3 -1,1 -3,1 -5,1zm0 -4c2,0 3,-1 4,-1 1,-1 2,-2 3,-4 0,-1 0,-3 0,-5l0 -1c0,-1 0,-3 0,-5 -1,-1 -2,-2 -3,-3 -1,-1 -2,-1 -4,-1 -1,0 -3,0 -4,1 -1,1 -2,2 -2,3 -1,2 -1,3 -1,5l0 1c0,2 0,4 1,5 0,2 1,3 2,4 1,0 3,1 4,1z"/>
  <path id="11" class="fil4" d="M1458 97l0 -4 3 0 0 -20 -3 -1 0 -3 14 0c2,0 4,0 5,1 2,0 3,1 4,2 1,2 1,3 1,5 0,2 0,3 -1,4 -1,2 -2,3 -3,4 -2,0 -4,1 -6,1l-5 0 0 7 3 0 0 4 -12 0zm19 0l-5 -12 5 -2 4 10 3 0 0 4 -7 0zm-10 -16l5 0c1,0 3,0 3,-1 1,0 2,-1 2,-3 0,-1 -1,-2 -2,-3 0,-1 -2,-1 -3,-1l-5 0 0 8z"/>
  <polygon id="12" class="fil4" points="1491,97 1491,93 1494,93 1494,73 1489,73 1489,76 1485,76 1485,69 1510,69 1510,76 1506,76 1505,73 1500,73 1500,93 1503,93 1503,97 "/>
  <path id="13" class="fil4" d="M1524 97c-2,0 -3,0 -5,-1 -2,0 -3,-1 -4,-3 -1,-1 -2,-3 -3,-4 0,-2 -1,-4 -1,-6l0 0c0,-3 1,-4 1,-6 1,-2 2,-3 3,-5 1,-1 2,-2 4,-3 2,0 3,-1 5,-1 2,0 4,1 5,1 2,1 3,2 5,3 1,2 2,3 2,5 1,2 1,3 1,6l0 0c0,2 0,4 -1,6 0,1 -1,3 -2,4 -2,2 -3,3 -4,3 -2,1 -4,1 -6,1zm0 -4c2,0 3,-1 4,-1 1,-1 2,-2 3,-4 0,-1 0,-3 0,-5l0 -1c0,-1 0,-3 0,-5 -1,-1 -2,-2 -3,-3 -1,-1 -2,-1 -4,-1 -1,0 -3,0 -4,1 -1,1 -2,2 -2,3 -1,2 -1,3 -1,5l0 1c0,2 0,4 1,5 0,2 1,3 2,4 1,0 3,1 4,1z"/>
  <path id="14" class="fil4" d="M1549 97l0 -4 2 0 9 -24 6 0 9 24 2 0 0 4 -10 0 0 -4 2 0 -1 -4 -10 0 -1 4 2 0 0 4 -10 0zm10 -12l7 0 -3 -10 0 -1 0 0 -1 1 -3 10z"/>
  <polygon id="15" class="fil4" points="1579,97 1579,93 1582,93 1582,73 1579,72 1579,69 1582,69 1587,69 1591,69 1591,72 1587,73 1587,93 1595,93 1596,88 1600,88 1600,97 "/>
  <polygon id="16" class="fil4" points="1602,97 1602,93 1605,93 1605,73 1602,72 1602,69 1624,69 1624,76 1620,76 1619,73 1611,73 1611,80 1620,80 1620,84 1611,84 1611,93 1620,93 1620,89 1624,89 1624,97 "/>
  <path id="17" class="fil4" d="M1641 97c-3,0 -6,0 -8,-1 -2,-2 -3,-3 -4,-5 -1,-2 -2,-5 -2,-8l0 -1c0,-2 1,-5 2,-7 1,-2 2,-4 4,-5 2,-1 4,-2 7,-2 2,0 4,0 6,1 2,1 3,1 5,2l0 7 -5 0 0 -4c-1,0 -2,-1 -3,-1 0,0 -1,0 -2,0 -2,0 -3,0 -5,1 -1,1 -2,2 -2,3 -1,2 -1,3 -1,5l0 1c0,2 0,4 1,5 0,2 1,3 2,4 2,1 3,1 5,1 1,0 2,0 2,0 1,-1 2,-1 3,-1l0 -5 -4 0 0 -4 9 0 0 11c-1,1 -3,2 -4,2 -2,1 -4,1 -6,1z"/>
  <path id="18" class="fil4" d="M1654 97l0 -4 3 0 0 -20 -3 -1 0 -3 14 0c2,0 4,0 5,1 2,0 3,1 4,2 1,2 1,3 1,5 0,2 0,3 -1,4 -1,2 -2,3 -4,4 -1,0 -3,1 -5,1l-5 0 0 7 3 0 0 4 -12 0zm18 0l-4 -12 5 -2 4 10 2 0 0 4 -7 0zm-9 -16l4 0c2,0 3,0 4,-1 1,0 1,-1 1,-3 0,-1 0,-2 -1,-3 -1,-1 -2,-1 -3,-1l-5 0 0 8z"/>
  <polygon id="19" class="fil4" points="1681,97 1681,93 1685,93 1685,73 1681,72 1681,69 1703,69 1703,76 1699,76 1699,73 1690,73 1690,80 1700,80 1700,84 1690,84 1690,93 1699,93 1700,89 1704,89 1704,97 "/>
  <path id="20" class="fil4" d="M1710 104l-3 -2c0,0 1,-1 1,-2 0,-1 1,-2 1,-4l0 -4 5 0 0 4c0,2 -1,3 -1,4 -1,2 -2,3 -3,4z"/>
  <path id="21" class="fil4" d="M1726 97l0 -4 4 0 0 -20 -4 -1 0 -3 4 0 9 0c3,0 6,0 8,2 2,1 3,3 3,5 0,2 -1,3 -1,4 -1,1 -2,2 -3,2 1,0 2,1 2,1 1,1 2,2 2,3 1,1 1,2 1,3 0,2 -1,4 -3,6 -2,1 -4,2 -8,2l-14 0zm9 -4l5 0c2,0 3,-1 4,-1 1,-1 1,-2 1,-3 0,-1 0,-2 0,-3 -1,0 -1,-1 -2,-1 0,0 -1,-1 -2,-1l-6 0 0 9zm0 -13l4 0c2,0 3,0 4,-1 1,0 1,-1 1,-2 0,-2 0,-3 -1,-3 -1,-1 -2,-1 -4,-1l-4 0 0 7z"/>
  <path id="22" class="fil4" d="M1753 97l0 -4 3 0 0 -20 -3 -1 0 -3 13 0c2,0 4,0 6,1 1,0 2,1 3,2 1,2 2,3 2,5 0,2 -1,3 -2,4 -1,2 -2,3 -3,4 -2,0 -3,1 -5,1l-6 0 0 7 3 0 0 4 -11 0zm18 0l-5 -12 5 -2 4 10 3 0 0 4 -7 0zm-10 -16l5 0c2,0 3,0 4,-1 0,0 1,-1 1,-3 0,-1 -1,-2 -1,-3 -1,-1 -2,-1 -4,-1l-5 0 0 8z"/>
  <path id="23" class="fil4" d="M1780 97l0 -4 2 0 9 -24 6 0 9 24 2 0 0 4 -10 0 0 -4 2 0 -1 -4 -10 0 -2 4 2 0 0 4 -9 0zm10 -12l7 0 -3 -10 0 -1 0 0 -1 1 -3 10z"/>
  <polygon id="24" class="fil4" points="1810,97 1810,93 1824,73 1815,73 1815,77 1810,77 1810,69 1831,69 1831,72 1817,93 1827,93 1827,89 1831,89 1831,97 "/>
  <polygon id="25" class="fil4" points="1833,97 1833,93 1836,93 1836,73 1833,72 1833,69 1845,69 1845,72 1842,73 1842,93 1845,93 1845,97 "/>
  <polygon id="26" class="fil4" points="1847,97 1847,93 1850,93 1850,73 1847,72 1847,69 1850,69 1856,69 1859,69 1859,72 1856,73 1856,93 1864,93 1864,88 1869,88 1869,97 "/>
  <path id="27" class="fil4" d="M1173 151c-3,0 -5,-1 -7,-2 -2,-1 -4,-2 -5,-5 -1,-2 -2,-4 -2,-7l0 -1c0,-3 1,-5 2,-7 1,-2 3,-4 5,-5 2,-1 4,-2 7,-2 2,0 3,0 5,1 2,0 3,1 5,2l0 7 -5 0 0 -4c-1,-1 -1,-1 -2,-1 0,0 -1,0 -1,-1 -1,0 -1,0 -2,0 -2,0 -3,1 -4,1 -1,1 -2,2 -3,4 -1,1 -1,3 -1,5l0 1c0,2 0,4 1,5 1,2 2,3 3,4 1,0 2,1 4,1 1,0 2,0 3,-1 0,0 1,0 2,0l0 -4 5 0 0 6c-1,1 -3,2 -4,2 -2,1 -4,1 -6,1z"/>
  <path id="28" class="fil4" d="M1198 151c-2,0 -3,0 -5,-1 -2,-1 -3,-2 -4,-3 -1,-1 -2,-3 -3,-5 0,-1 -1,-3 -1,-5l0 -1c0,-2 1,-4 1,-5 1,-2 2,-4 3,-5 1,-1 2,-2 4,-3 2,-1 3,-1 5,-1 2,0 4,0 5,1 2,1 3,2 5,3 1,1 2,3 2,5 1,1 1,3 1,5l0 1c0,2 0,4 -1,5 0,2 -1,4 -2,5 -2,1 -3,2 -5,3 -1,1 -3,1 -5,1zm0 -4c2,0 3,-1 4,-2 1,0 2,-2 3,-3 0,-2 0,-3 0,-5l0 -1c0,-2 0,-3 0,-5 -1,-1 -2,-3 -3,-3 -1,-1 -2,-2 -4,-2 -1,0 -3,1 -4,2 -1,0 -2,2 -2,3 -1,2 -1,3 -1,5l0 1c0,2 0,3 1,5 0,1 1,3 2,3 1,1 3,2 4,2z"/>
  <polygon id="29" class="fil4" points="1213,151 1213,147 1216,147 1216,126 1213,126 1213,122 1216,122 1222,122 1234,142 1235,142 1235,126 1231,126 1231,122 1240,122 1243,122 1243,126 1240,126 1240,151 1234,151 1222,131 1221,131 1221,147 1225,147 1225,151 "/>
  <polygon id="30" class="fil4" points="1245,151 1245,147 1248,147 1248,126 1245,126 1245,122 1267,122 1267,130 1263,130 1263,127 1253,127 1253,135 1263,135 1263,139 1253,139 1253,147 1256,147 1256,151 "/>
  <polygon id="31" class="fil4" points="1269,151 1269,147 1272,147 1272,126 1269,126 1269,122 1291,122 1291,130 1287,130 1287,127 1278,127 1278,134 1287,134 1287,138 1278,138 1278,146 1287,146 1287,143 1292,143 1292,151 "/>
  <path id="32" class="fil4" d="M1295 151l0 -4 3 0 0 -21 -3 0 0 -4 13 0c2,0 4,1 6,1 1,1 2,2 3,3 1,2 2,3 2,5 0,1 -1,3 -2,4 -1,2 -2,3 -3,3 -2,1 -3,1 -5,1l-6 0 0 8 3 0 0 4 -11 0zm18 0l-5 -13 5 -1 4 10 3 0 0 4 -7 0zm-10 -16l5 0c2,0 3,0 4,-1 0,-1 1,-2 1,-3 0,-1 -1,-2 -1,-3 -1,-1 -2,-1 -4,-1l-5 0 0 8z"/>
  <polygon id="33" class="fil4" points="1322,151 1322,147 1325,147 1325,126 1322,126 1322,122 1344,122 1344,130 1340,130 1339,127 1331,127 1331,134 1340,134 1340,138 1331,138 1331,146 1340,146 1340,143 1344,143 1344,151 "/>
  <polygon id="34" class="fil4" points="1347,151 1347,147 1350,147 1350,126 1347,126 1347,122 1350,122 1356,122 1369,142 1369,142 1369,126 1365,126 1365,122 1374,122 1377,122 1377,126 1374,126 1374,151 1368,151 1356,131 1356,131 1356,147 1359,147 1359,151 "/>
  <path id="35" class="fil4" d="M1392 151c-3,0 -5,-1 -7,-2 -2,-1 -4,-2 -5,-5 -1,-2 -1,-4 -1,-7l0 -1c0,-3 0,-5 1,-7 1,-2 3,-4 5,-5 2,-1 4,-2 7,-2 2,0 4,0 5,1 2,0 3,1 5,2l0 7 -4 0 -1 -4c0,-1 -1,-1 -1,-1 -1,0 -1,0 -2,-1 -1,0 -1,0 -2,0 -2,0 -3,1 -4,1 -1,1 -2,2 -3,4 0,1 -1,3 -1,5l0 1c0,2 1,4 1,5 1,2 2,3 3,4 1,0 3,1 4,1 1,0 2,0 3,-1 1,0 1,0 2,0l1 -4 4 0 0 6c-1,1 -3,2 -4,2 -2,1 -4,1 -6,1z"/>
  <polygon id="36" class="fil4" points="1404,151 1404,147 1407,147 1407,126 1404,126 1404,122 1426,122 1426,130 1422,130 1422,127 1413,127 1413,134 1423,134 1423,138 1413,138 1413,146 1422,146 1422,143 1427,143 1427,151 "/>
  <path id="37" class="fil4" d="M1430 151l0 -5 6 0 0 5 -6 0zm0 -16l0 -5 6 0 0 5 -6 0z"/>
  <path id="38" class="fil4" d="M1460 151c-2,0 -4,0 -6,-1 -1,0 -3,-1 -5,-2l0 -7 5 0 0 4c1,1 2,1 3,1 1,1 2,1 3,1 1,0 2,0 3,-1 0,0 1,0 1,-1 1,0 1,-1 1,-2 0,0 0,-1 -1,-2 0,0 -1,-1 -1,-1 -1,0 -2,-1 -3,-1 -3,-1 -5,-2 -6,-2 -1,-1 -3,-2 -3,-3 -1,-1 -1,-3 -1,-4 0,-2 0,-3 1,-4 1,-1 2,-2 3,-3 2,-1 4,-1 6,-1 2,0 4,0 5,1 2,0 4,1 5,2l0 6 -5 0 0 -4c-1,0 -1,0 -2,0 -1,-1 -2,-1 -3,-1 -1,0 -2,0 -3,1 0,0 -1,0 -1,1 -1,0 -1,1 -1,2 0,0 0,1 1,1 0,1 1,1 2,2 0,0 1,1 3,1 3,1 5,2 7,4 2,1 2,3 2,5 0,2 0,3 -1,4 -1,2 -2,2 -3,3 -2,1 -4,1 -6,1z"/>
  <polygon id="39" class="fil4" points="1473,151 1473,147 1476,147 1476,126 1473,126 1473,122 1495,122 1495,130 1490,130 1490,127 1481,127 1481,134 1491,134 1491,138 1481,138 1481,146 1491,146 1491,143 1495,143 1495,151 "/>
  <path id="40" class="fil4" d="M1498 151l0 -4 3 0 0 -21 -3 0 0 -4 3 0 11 0c2,0 4,1 5,1 2,1 3,2 4,4 1,1 1,3 1,4 0,2 0,4 -1,5 -1,1 -2,3 -4,3 -1,1 -3,1 -5,1l-5 0 0 7 3 0 0 4 -12 0zm9 -15l5 0c1,0 2,0 3,-1 1,-1 1,-2 1,-4 0,-1 0,-2 -1,-3 -1,-1 -2,-1 -3,-1l-5 0 0 9z"/>
  <polygon id="41" class="fil4" points="1530,151 1530,147 1533,147 1533,127 1528,127 1528,130 1524,130 1524,122 1549,122 1549,130 1545,130 1544,127 1539,127 1539,147 1542,147 1542,151 "/>
  <polygon id="42" class="fil4" points="1551,151 1551,147 1554,147 1554,126 1551,126 1551,122 1573,122 1573,130 1569,130 1568,127 1560,127 1560,134 1569,134 1569,138 1560,138 1560,146 1569,146 1569,143 1573,143 1573,151 "/>
  <polygon id="43" class="fil4" points="1576,151 1576,147 1579,147 1579,126 1576,126 1576,122 1579,122 1588,122 1596,142 1596,142 1603,122 1615,122 1615,126 1612,126 1612,147 1615,147 1615,151 1603,151 1603,147 1606,147 1606,141 1606,128 1606,128 1598,150 1593,150 1585,129 1584,129 1585,141 1585,147 1588,147 1588,151 "/>
  <path id="44" class="fil4" d="M1617 151l0 -4 3 0 0 -21 -3 0 0 -4 3 0 9 0c4,0 6,1 8,2 2,2 3,4 3,6 0,1 -1,3 -1,4 -1,1 -2,1 -3,2 1,0 2,1 3,1 0,1 1,2 1,3 1,0 1,1 1,2 0,3 -1,5 -3,7 -2,1 -4,2 -7,2l-14 0zm8 -5l6 0c1,0 2,0 3,-1 1,0 1,-1 1,-3 0,-1 0,-1 0,-2 -1,-1 -1,-1 -2,-1 0,-1 -1,-1 -2,-1l-6 0 0 8zm0 -12l4 0c2,0 3,0 4,-1 1,0 1,-1 1,-2 0,-2 0,-3 -1,-3 -1,-1 -2,-1 -4,-1l-4 0 0 7z"/>
  <polygon id="45" class="fil4" points="1643,151 1643,147 1646,147 1646,126 1643,126 1643,122 1665,122 1665,130 1660,130 1660,127 1651,127 1651,134 1661,134 1661,138 1651,138 1651,146 1661,146 1661,143 1665,143 1665,151 "/>
  <path id="46" class="fil4" d="M1668 151l0 -4 3 0 0 -21 -3 0 0 -4 14 0c2,0 4,1 5,1 2,1 3,2 4,3 1,2 1,3 1,5 0,1 0,3 -1,4 -1,2 -2,3 -4,3 -1,1 -3,1 -5,1l-5 0 0 8 3 0 0 4 -12 0zm18 0l-4 -13 5 -1 4 10 2 0 0 4 -7 0zm-9 -16l5 0c1,0 2,0 3,-1 1,-1 1,-2 1,-3 0,-1 0,-2 -1,-3 -1,-1 -2,-1 -3,-1l-5 0 0 8z"/>
  <path id="47" class="fil4" d="M1706 151l0 -4 9 -10c1,-1 2,-2 2,-3 1,0 1,-1 1,-2 0,0 1,-1 1,-2 0,-1 -1,-2 -1,-3 -1,0 -2,-1 -3,-1 -1,0 -2,1 -3,2 -1,0 -1,2 -1,3l-6 0 0 0c0,-2 1,-3 1,-5 1,-1 2,-2 4,-3 1,-1 3,-1 5,-1 2,0 4,0 5,1 1,1 2,2 3,3 1,1 1,3 1,4 0,1 0,2 0,3 -1,1 -1,2 -2,4 -1,1 -2,2 -3,3l-6 6 0 0 7 0 1 -2 4 0 0 7 -19 0z"/>
  <path id="48" class="fil4" d="M1738 151c-2,0 -3,0 -5,-1 -2,-1 -3,-3 -4,-4 0,-2 -1,-4 -1,-6l0 -5c0,-3 1,-5 2,-7 1,-2 2,-4 4,-5 1,-1 3,-1 5,-1 2,0 3,0 3,0 1,0 2,1 3,1l-1 4c-1,0 -1,0 -2,0 -1,-1 -2,-1 -2,-1 -2,0 -4,1 -5,2 -1,1 -1,3 -1,6l0 0c1,-1 1,-1 2,-2 1,0 2,0 4,0 1,0 3,0 4,1 1,1 2,2 3,3 0,2 1,3 1,5 0,2 -1,4 -1,5 -1,2 -2,3 -4,4 -1,1 -3,1 -5,1zm0 -4c1,0 2,-1 2,-1 1,-1 1,-1 2,-2 0,-1 0,-2 0,-3 0,-1 0,-3 -1,-4 -1,-1 -2,-1 -3,-1 -1,0 -1,0 -2,0 0,0 -1,1 -1,1 -1,0 -1,0 -1,1l0 2c0,2 0,4 1,5 1,1 2,2 3,2z"/>
  <polygon id="49" class="fil4" points="1751,141 1751,136 1762,136 1762,141 "/>
  <path id="50" class="fil4" d="M1775 151c-2,0 -3,0 -5,-1 -1,-1 -2,-1 -3,-3 -1,-1 -1,-2 -1,-4l0 0 5 0c0,1 0,1 1,2 0,0 0,1 1,1 1,1 1,1 2,1 2,0 3,-1 3,-1 1,-1 1,-2 1,-3 0,-2 0,-3 -1,-4 0,0 -2,-1 -3,-1l-3 0 0 -4 3 0c1,0 2,0 2,0 1,-1 1,-1 2,-2 0,0 0,-1 0,-2 0,-1 0,-2 -1,-3 -1,0 -2,-1 -3,-1 0,0 -1,0 -2,1 0,0 -1,0 -1,1 0,1 -1,1 -1,2l-5 0 0 0c0,-2 0,-3 1,-4 1,-1 2,-2 3,-3 2,-1 3,-1 5,-1 3,0 5,1 7,2 2,1 3,3 3,6 0,1 -1,2 -1,4 -1,1 -2,1 -4,2 2,1 3,2 4,3 1,1 1,2 1,4 0,1 0,3 -1,4 -1,1 -2,2 -4,3 -1,1 -3,1 -5,1z"/>
  <path id="51" class="fil4" d="M1798 151c-3,0 -6,-1 -7,-3 -2,-2 -3,-5 -3,-8l0 -7c0,-3 1,-6 3,-8 1,-2 4,-3 7,-3 2,0 5,1 7,3 1,2 2,5 2,8l0 7c0,3 -1,6 -2,8 -2,2 -4,3 -7,3zm0 -4c1,0 2,-1 3,-2 0,-1 0,-3 0,-5l0 -7c0,-2 0,-4 -1,-5 0,-1 -1,-2 -2,-2 -2,0 -3,1 -3,2 -1,1 -1,3 -1,5l0 7c0,2 0,4 1,5 0,1 1,2 3,2z"/>
  <path id="52" class="fil4" d="M1813 158l-3 -2c1,-1 1,-2 1,-3 0,-1 1,-2 1,-3l0 -4 5 0 0 4c0,1 -1,3 -1,4 -1,2 -2,3 -3,4z"/>
  <path id="53" class="fil4" d="M1830 151l0 -4 9 -10c1,-1 2,-2 2,-3 1,0 1,-1 1,-2 1,0 1,-1 1,-2 0,-1 -1,-2 -1,-3 -1,0 -2,-1 -3,-1 -1,0 -2,1 -3,2 -1,0 -1,2 -1,3l-5 0 0 0c-1,-2 0,-3 1,-5 0,-1 2,-2 3,-3 1,-1 3,-1 5,-1 2,0 4,0 5,1 2,1 3,2 3,3 1,1 1,3 1,4 0,1 0,2 0,3 -1,1 -1,2 -2,4 -1,1 -2,2 -3,3l-6 6 0 0 8 0 0 -2 4 0 0 7 -19 0z"/>
  <path id="54" class="fil4" d="M1862 151c-3,0 -5,-1 -7,-3 -2,-2 -3,-5 -3,-8l0 -7c0,-3 1,-6 3,-8 2,-2 4,-3 7,-3 3,0 5,1 7,3 2,2 3,5 3,8l0 7c0,3 -1,6 -3,8 -2,2 -4,3 -7,3zm0 -4c1,0 2,-1 3,-2 1,-1 1,-3 1,-5l0 -7c0,-2 0,-4 -1,-5 -1,-1 -2,-2 -3,-2 -1,0 -2,1 -3,2 -1,1 -1,3 -1,5l0 7c0,2 0,4 1,5 1,1 2,2 3,2z"/>
  <path id="55" class="fil4" d="M1875 151l0 -4 9 -10c1,-1 2,-2 2,-3 1,0 1,-1 1,-2 1,0 1,-1 1,-2 0,-1 -1,-2 -1,-3 -1,0 -2,-1 -3,-1 -1,0 -2,1 -3,2 -1,0 -1,2 -1,3l-6 0 0 0c0,-2 1,-3 1,-5 1,-1 2,-2 4,-3 1,-1 3,-1 5,-1 2,0 4,0 5,1 1,1 2,2 3,3 1,1 1,3 1,4 0,1 0,2 0,3 -1,1 -1,2 -2,4 -1,1 -2,2 -3,3l-6 6 0 0 7 0 1 -2 4 0 0 7 -19 0z"/>
  <path id="56" class="fil4" d="M1897 151l0 -4 9 -10c1,-1 2,-2 2,-3 1,0 1,-1 1,-2 1,0 1,-1 1,-2 0,-1 -1,-2 -1,-3 -1,0 -2,-1 -3,-1 -1,0 -2,1 -3,2 -1,0 -1,2 -1,3l-5 0 -1 0c0,-2 1,-3 2,-5 0,-1 1,-2 3,-3 1,-1 3,-1 5,-1 2,0 4,0 5,1 1,1 3,2 3,3 1,1 1,3 1,4 0,1 0,2 0,3 -1,1 -1,2 -2,4 -1,1 -2,2 -3,3l-6 6 0 0 8 0 0 -2 4 0 0 7 -19 0z"/>
  <polygon class="fil3" points="25,213 25,210 28,210 28,192 25,192 25,189 28,189 33,189 36,189 36,192 33,192 33,209 39,209 40,206 43,206 43,213 "/>
  <path id="1" class="fil3" d="M45 213l0 -3 2 0 7 -21 5 0 7 21 2 0 0 3 -8 0 0 -3 2 0 -1 -4 -9 0 -1 4 2 0 0 3 -8 0zm8 -10l7 0 -3 -8 0 -1 -1 0 0 1 -3 8z"/>
  <polygon id="2" class="fil3" points="73,213 73,210 75,210 75,193 71,193 71,196 67,196 67,189 88,189 88,196 85,196 84,193 80,193 80,210 83,210 83,213 "/>
  <polygon id="3" class="fil3" points="90,213 90,210 93,210 93,192 90,192 90,189 100,189 100,192 97,192 97,210 100,210 100,213 "/>
  <polygon id="4" class="fil3" points="102,213 102,210 104,210 104,192 102,192 102,189 104,189 109,189 119,206 120,206 120,192 116,192 116,189 124,189 126,189 126,192 124,192 124,213 119,213 109,197 108,197 108,210 112,210 112,213 "/>
  <path id="5" class="fil3" d="M136 213l0 -3 2 0 7 -21 5 0 8 21 1 0 0 3 -8 0 0 -3 2 0 -1 -4 -9 0 -1 4 2 0 0 3 -8 0zm8 -10l7 0 -3 -8 0 -1 0 0 -1 1 -3 8z"/>
  <polygon id="6" class="fil3" points="161,213 161,210 163,210 163,192 161,192 161,189 163,189 170,189 177,206 177,206 183,189 193,189 193,192 190,192 190,210 193,210 193,213 183,213 183,210 186,210 186,205 186,194 186,194 179,213 175,213 168,194 168,194 168,204 168,210 171,210 171,213 "/>
  <polygon id="7" class="fil3" points="195,213 195,210 197,210 197,192 195,192 195,189 213,189 213,195 209,195 209,193 202,193 202,199 210,199 210,202 202,202 202,209 210,209 210,206 213,206 213,213 "/>
  <path id="8" class="fil3" d="M216 213l0 -3 2 0 0 -18 -2 0 0 -3 11 0c2,0 4,0 5,1 1,0 2,1 3,2 1,1 1,3 1,4 0,2 0,3 -1,4 -1,1 -2,2 -3,3 -1,0 -3,0 -4,0l-5 0 0 7 3 0 0 3 -10 0zm15 0l-4 -10 5 -1 3 8 2 0 0 3 -6 0zm-8 -13l4 0c2,0 3,-1 3,-1 1,-1 1,-2 1,-3 0,-1 0,-2 -1,-2 0,-1 -1,-1 -3,-1l-4 0 0 7z"/>
  <polygon id="9" class="fil3" points="239,213 239,210 242,210 242,192 239,192 239,189 249,189 249,192 246,192 246,210 249,210 249,213 "/>
  <path id="10" class="fil3" d="M262 213c-2,0 -4,0 -6,-1 -2,-1 -3,-3 -4,-4 -1,-2 -1,-4 -1,-7l0 0c0,-3 0,-5 1,-7 1,-1 2,-3 4,-4 1,-1 3,-1 6,-1 1,0 3,0 4,0 2,1 3,2 4,3l0 5 -4 0 0 -3c0,-1 -1,-1 -1,-1 -1,0 -1,0 -2,0 0,-1 -1,-1 -1,-1 -2,0 -3,1 -4,1 -1,1 -1,2 -2,3 0,1 -1,3 -1,5l0 0c0,2 1,3 1,5 1,1 1,2 2,3 1,0 3,1 4,1 1,0 1,-1 2,-1 1,0 1,0 2,0l0 -4 4 0 0 6c-1,1 -2,1 -3,2 -2,0 -3,0 -5,0z"/>
  <path id="11" class="fil3" d="M272 213l0 -3 2 0 7 -21 5 0 8 21 1 0 0 3 -8 0 0 -3 2 0 -1 -4 -9 0 -1 4 2 0 0 3 -8 0zm9 -10l6 0 -3 -8 0 -1 0 0 -1 1 -2 8z"/>
  <polygon id="12" class="fil3" points="305,213 305,210 308,210 308,192 305,192 305,189 315,189 315,192 312,192 312,199 322,199 322,192 320,192 320,189 322,189 327,189 329,189 329,192 327,192 327,210 329,210 329,213 320,213 320,210 322,210 322,203 312,203 312,210 315,210 315,213 "/>
  <polygon id="13" class="fil3" points="331,213 331,210 334,210 334,192 331,192 331,189 341,189 341,192 339,192 339,210 341,210 341,213 "/>
  <path id="14" class="fil3" d="M354 213c-2,0 -4,0 -6,-1 -2,-1 -3,-3 -4,-4 -1,-2 -1,-4 -1,-6l0 -1c0,-3 0,-5 1,-7 1,-1 2,-3 4,-4 2,-1 3,-1 6,-1 1,0 3,0 4,0 2,1 3,2 4,3l0 5 -3 0 -1 -3c0,-1 -1,-1 -2,-1 0,0 -1,-1 -2,-1 -1,0 -2,1 -3,1 -1,1 -2,2 -3,3 0,2 0,3 0,5l0 1c0,1 0,3 0,4 1,1 2,2 3,3 1,0 2,1 3,1 1,0 2,-1 2,-1 1,0 2,0 2,0l0 -4 -3 -1 0 -3 8 0 0 10c-1,0 -2,1 -4,2 -1,0 -3,0 -5,0z"/>
  <polygon id="15" class="fil3" points="365,213 365,210 368,210 368,192 365,192 365,189 375,189 375,192 373,192 373,199 382,199 382,192 380,192 380,189 382,189 387,189 390,189 390,192 387,192 387,210 390,210 390,213 380,213 380,210 382,210 382,203 373,203 373,210 375,210 375,213 "/>
  <path id="16" class="fil3" d="M400 213l0 -3 2 0 0 -18 -2 0 0 -3 2 0 9 0c2,0 3,0 5,1 1,1 2,2 3,3 1,1 1,2 1,4 0,1 0,3 -1,4 -1,1 -2,2 -3,2 -2,1 -3,1 -5,1l-4 0 0 6 3 0 0 3 -10 0zm7 -12l4 0c1,0 2,-1 3,-2 1,0 1,-1 1,-2 0,-1 0,-2 -1,-3 -1,-1 -2,-1 -3,-1l-4 0 0 8z"/>
  <polygon id="17" class="fil3" points="421,213 421,210 424,210 424,192 421,192 421,189 440,189 440,195 436,195 436,193 429,193 429,199 437,199 437,202 429,202 429,209 436,209 437,206 440,206 440,213 "/>
  <path id="18" class="fil3" d="M443 213l0 -3 2 0 0 -18 -2 0 0 -3 11 0c2,0 3,0 5,1 1,0 2,1 3,2 0,1 1,3 1,4 0,2 -1,3 -1,4 -1,1 -2,2 -3,3 -1,0 -3,0 -4,0l-5 0 0 7 3 0 0 3 -10 0zm15 0l-4 -10 4 -1 4 8 2 0 0 3 -6 0zm-8 -13l4 0c1,0 2,-1 3,-1 1,-1 1,-2 1,-3 0,-1 0,-2 -1,-2 -1,-1 -2,-1 -3,-1l-4 0 0 7z"/>
  <polygon id="19" class="fil3" points="466,213 466,210 468,210 468,192 466,192 466,189 485,189 485,196 481,196 481,193 473,193 473,199 481,199 481,203 473,203 473,210 476,210 476,213 "/>
  <path id="20" class="fil3" d="M497 213c-2,0 -3,0 -5,-1 -1,0 -2,-1 -3,-2 -1,-1 -2,-3 -2,-4 -1,-2 -1,-3 -1,-5l0 0c0,-2 0,-4 1,-5 0,-1 1,-3 2,-4 1,-1 2,-2 3,-2 2,-1 3,-1 5,-1 1,0 3,0 4,1 1,0 3,1 4,2 0,1 1,3 2,4 0,1 1,3 1,5l0 0c0,2 -1,3 -1,5 -1,1 -2,3 -2,4 -1,1 -3,2 -4,2 -1,1 -3,1 -4,1zm0 -4c1,0 2,0 3,-1 1,0 2,-1 2,-2 1,-2 1,-3 1,-5l0 0c0,-2 0,-3 -1,-5 0,-1 -1,-2 -2,-3 -1,0 -2,-1 -3,-1 -2,0 -3,1 -4,1 -1,1 -1,2 -2,3 0,2 0,3 0,5l0 0c0,2 0,3 0,5 1,1 1,2 2,2 1,1 2,1 4,1z"/>
  <path id="21" class="fil3" d="M509 213l0 -3 3 0 0 -18 -3 0 0 -3 12 0c2,0 3,0 4,1 2,0 3,1 3,2 1,1 1,3 1,4 0,2 0,3 -1,4 0,1 -1,2 -2,3 -2,0 -3,0 -5,0l-4 0 0 7 2 0 0 3 -10 0zm16 0l-4 -10 4 -1 4 8 2 0 0 3 -6 0zm-8 -13l4 0c1,0 2,-1 3,-1 0,-1 1,-2 1,-3 0,-1 -1,-2 -1,-2 -1,-1 -2,-1 -3,-1l-4 0 0 7z"/>
  <polygon id="22" class="fil3" points="532,213 532,210 535,210 535,192 532,192 532,189 535,189 542,189 549,206 549,206 555,189 565,189 565,192 562,192 562,210 565,210 565,213 555,213 555,210 557,210 557,205 557,194 557,194 550,213 547,213 539,194 539,194 539,204 539,210 542,210 542,213 "/>
  <path id="23" class="fil3" d="M564 213l0 -3 2 0 8 -21 5 0 7 21 2 0 0 3 -8 0 0 -3 1 0 -1 -4 -8 0 -1 4 1 0 0 3 -8 0zm9 -10l6 0 -3 -8 0 -1 0 0 0 1 -3 8z"/>
  <polygon id="24" class="fil3" points="589,213 589,210 592,210 592,192 589,192 589,189 592,189 597,189 607,206 607,206 607,192 604,192 604,189 611,189 614,189 614,192 611,192 611,213 607,213 596,197 596,197 596,210 599,210 599,213 "/>
  <path id="25" class="fil3" d="M627 213c-2,0 -4,0 -6,-1 -2,-1 -3,-3 -4,-4 -1,-2 -2,-4 -2,-7l0 0c0,-3 1,-5 2,-7 1,-1 2,-3 4,-4 1,-1 3,-1 6,-1 1,0 3,0 4,0 2,1 3,2 4,3l0 5 -4 0 0 -3c0,-1 -1,-1 -1,-1 -1,0 -1,0 -2,0 0,-1 -1,-1 -1,-1 -2,0 -3,1 -4,1 -1,1 -1,2 -2,3 0,1 -1,3 -1,5l0 0c0,2 1,3 1,5 1,1 1,2 2,3 1,0 3,1 4,1 1,0 1,-1 2,-1 1,0 1,0 2,0l0 -4 4 0 0 6c-1,1 -2,1 -4,2 -1,0 -2,0 -4,0z"/>
  <polygon id="26" class="fil3" points="637,213 637,210 640,210 640,192 637,192 637,189 656,189 656,195 652,195 652,193 644,193 644,199 653,199 653,202 644,202 644,209 652,209 652,206 656,206 656,213 "/>
  <path id="27" class="fil3" d="M678 213c-2,0 -4,0 -6,-1 -2,-1 -3,-3 -4,-4 -1,-2 -1,-4 -1,-7l0 0c0,-3 0,-5 1,-7 1,-1 2,-3 4,-4 2,-1 4,-1 6,-1 1,0 3,0 4,0 2,1 3,2 4,3l0 5 -3 0 -1 -3c0,-1 -1,-1 -1,-1 -1,0 -1,0 -1,0 -1,-1 -2,-1 -2,-1 -1,0 -3,1 -4,1 -1,1 -1,2 -2,3 0,1 -1,3 -1,5l0 0c0,2 1,3 1,5 1,1 2,2 3,3 1,0 2,1 3,1 1,0 2,-1 2,-1 1,0 2,0 2,0l1 -4 3 0 0 6c-1,1 -2,1 -3,2 -2,0 -3,0 -5,0z"/>
  <path id="28" class="fil3" d="M699 213c-1,0 -3,0 -4,-1 -1,0 -3,-1 -4,-2 -1,-1 -1,-3 -2,-4 0,-2 -1,-3 -1,-5l0 0c0,-2 1,-4 1,-5 1,-1 1,-3 2,-4 1,-1 2,-2 4,-2 1,-1 3,-1 4,-1 2,0 3,0 5,1 1,0 2,1 3,2 1,1 2,3 2,4 1,1 1,3 1,5l0 0c0,2 0,3 -1,5 0,1 -1,3 -2,4 -1,1 -2,2 -3,2 -2,1 -3,1 -5,1zm0 -4c2,0 3,0 4,-1 0,0 1,-1 2,-2 0,-2 0,-3 0,-5l0 0c0,-2 0,-3 0,-5 -1,-1 -2,-2 -2,-3 -1,0 -2,-1 -4,-1 -1,0 -2,1 -3,1 -1,1 -2,2 -2,3 -1,2 -1,3 -1,5l0 0c0,2 0,3 1,5 0,1 1,2 2,2 1,1 2,1 3,1z"/>
  <polygon id="29" class="fil3" points="712,213 712,210 714,210 714,192 712,192 712,189 714,189 722,189 728,206 728,206 734,189 744,189 744,192 741,192 741,210 744,210 744,213 734,213 734,210 737,210 737,205 737,194 737,194 730,213 726,213 719,194 719,194 719,204 719,210 722,210 722,213 "/>
  <path id="30" class="fil3" d="M746 213l0 -3 2 0 0 -18 -2 0 0 -3 2 0 9 0c2,0 3,0 5,1 1,1 2,2 3,3 0,1 1,2 1,4 0,1 -1,3 -1,4 -1,1 -2,2 -3,2 -2,1 -3,1 -5,1l-4 0 0 6 3 0 0 3 -10 0zm7 -12l4 0c1,0 2,-1 3,-2 1,0 1,-1 1,-2 0,-1 0,-2 -1,-3 -1,-1 -2,-1 -3,-1l-4 0 0 8z"/>
  <path id="31" class="fil3" d="M779 213c-2,0 -3,0 -5,-1 -1,0 -2,-1 -3,-3 -1,-1 -1,-2 -1,-4l0 -13 -3 0 0 -3 10 0 0 3 -3 0 0 13c0,1 1,2 1,2 0,1 1,2 2,2 0,0 1,1 2,1 1,0 2,-1 3,-1 0,0 1,-1 1,-2 1,0 1,-1 1,-2l0 -13 -3 0 0 -3 10 0 0 3 -2 0 0 13c0,2 -1,3 -2,4 0,2 -1,3 -3,3 -1,1 -3,1 -5,1z"/>
  <polygon id="32" class="fil3" points="798,213 798,210 801,210 801,193 796,193 796,196 793,196 793,189 814,189 814,196 810,196 810,193 806,193 806,210 808,210 808,213 "/>
  <polygon id="33" class="fil3" points="815,213 815,210 818,210 818,192 815,192 815,189 825,189 825,192 823,192 823,210 825,210 825,213 "/>
  <polygon id="34" class="fil3" points="827,213 827,210 830,210 830,192 827,192 827,189 830,189 835,189 845,206 845,206 845,192 842,192 842,189 849,189 852,189 852,192 849,192 849,213 845,213 834,197 834,197 834,210 837,210 837,213 "/>
  <path id="35" class="fil3" d="M864 213c-2,0 -4,0 -6,-1 -1,-1 -3,-3 -3,-4 -1,-2 -2,-4 -2,-6l0 -1c0,-3 1,-5 2,-7 0,-1 2,-3 3,-4 2,-1 4,-1 6,-1 2,0 3,0 5,0 1,1 3,2 4,3l0 5 -4 0 0 -3c-1,-1 -1,-1 -2,-1 -1,0 -2,-1 -3,-1 -1,0 -2,1 -3,1 -1,1 -2,2 -2,3 -1,2 -1,3 -1,5l0 1c0,1 0,3 1,4 0,1 1,2 2,3 1,0 2,1 4,1 0,0 1,-1 2,-1 1,0 1,0 2,0l0 -4 -4 -1 0 -3 8 0 0 10c-1,0 -2,1 -3,2 -2,0 -4,0 -6,0z"/>
  <path id="36" class="fil3" d="M895 213c-2,0 -4,0 -6,-1 -1,-1 -3,-3 -4,-4 -1,-2 -1,-4 -1,-7l0 0c0,-3 0,-5 1,-7 1,-1 2,-3 4,-4 2,-1 4,-1 6,-1 2,0 3,0 5,0 1,1 2,2 3,3l0 5 -3 0 -1 -3c0,-1 0,-1 -1,-1 0,0 -1,0 -1,0 -1,-1 -1,-1 -2,-1 -1,0 -2,1 -3,1 -1,1 -2,2 -3,3 0,1 0,3 0,5l0 0c0,2 0,3 1,5 0,1 1,2 2,3 1,0 2,1 3,1 1,0 2,-1 2,-1 1,0 2,0 2,0l1 -4 3 0 0 6c-1,1 -2,1 -3,2 -1,0 -3,0 -5,0z"/>
  <path id="37" class="fil3" d="M916 213c-1,0 -3,0 -4,-1 -1,0 -2,-1 -3,-2 -1,-1 -2,-3 -3,-4 0,-2 0,-3 0,-5l0 0c0,-2 0,-4 0,-5 1,-1 2,-3 3,-4 1,-1 2,-2 3,-2 1,-1 3,-1 4,-1 2,0 4,0 5,1 1,0 2,1 3,2 1,1 2,3 3,4 0,1 0,3 0,5l0 0c0,2 0,3 0,5 -1,1 -2,3 -3,4 -1,1 -2,2 -3,2 -1,1 -3,1 -5,1zm0 -4c2,0 3,0 4,-1 1,0 1,-1 2,-2 0,-2 1,-3 1,-5l0 0c0,-2 -1,-3 -1,-5 -1,-1 -1,-2 -2,-3 -1,0 -2,-1 -4,-1 -1,0 -2,1 -3,1 -1,1 -1,2 -2,3 0,2 -1,3 -1,5l0 0c0,2 1,3 1,5 1,1 1,2 2,2 1,1 2,1 3,1z"/>
  <polygon id="38" class="fil3" points="929,213 929,210 932,210 932,192 929,192 929,189 932,189 937,189 947,206 947,206 947,192 944,192 944,189 951,189 954,189 954,192 951,192 951,213 947,213 936,197 936,197 936,210 939,210 939,213 "/>
  <polygon id="39" class="fil3" points="955,213 955,210 958,210 958,192 955,192 955,189 974,189 974,196 971,196 970,193 963,193 963,199 971,199 971,203 963,203 963,210 965,210 965,213 "/>
  <polygon id="40" class="fil3" points="976,213 976,210 979,210 979,192 976,192 976,189 995,189 995,195 991,195 991,193 983,193 983,199 991,199 991,202 983,202 983,209 991,209 991,206 995,206 995,213 "/>
  <path id="41" class="fil3" d="M997 213l0 -3 3 0 0 -18 -3 0 0 -3 12 0c2,0 3,0 4,1 2,0 3,1 3,2 1,1 2,3 2,4 0,2 -1,3 -2,4 0,1 -1,2 -2,3 -2,0 -3,0 -5,0l-4 0 0 7 2 0 0 3 -10 0zm16 0l-4 -10 4 -1 4 8 2 0 0 3 -6 0zm-8 -13l4 0c1,0 2,-1 3,-1 0,-1 1,-2 1,-3 0,-1 -1,-2 -1,-2 -1,-1 -2,-1 -3,-1l-4 0 0 7z"/>
  <polygon id="42" class="fil3" points="1020,213 1020,210 1023,210 1023,192 1020,192 1020,189 1039,189 1039,195 1035,195 1035,193 1028,193 1028,199 1036,199 1036,202 1028,202 1028,209 1035,209 1036,206 1039,206 1039,213 "/>
  <polygon id="43" class="fil3" points="1042,213 1042,210 1044,210 1044,192 1042,192 1042,189 1044,189 1049,189 1060,206 1060,206 1060,192 1057,192 1057,189 1064,189 1066,189 1066,192 1064,192 1064,213 1059,213 1049,197 1049,197 1049,210 1052,210 1052,213 "/>
  <path id="44" class="fil3" d="M1079 213c-2,0 -4,0 -6,-1 -1,-1 -3,-3 -4,-4 -1,-2 -1,-4 -1,-7l0 0c0,-3 0,-5 1,-7 1,-1 3,-3 4,-4 2,-1 4,-1 6,-1 2,0 3,0 5,0 1,1 2,2 3,3l0 5 -3 0 -1 -3c0,-1 0,-1 -1,-1 0,0 -1,0 -1,0 -1,-1 -1,-1 -2,-1 -1,0 -2,1 -3,1 -1,1 -2,2 -2,3 -1,1 -1,3 -1,5l0 0c0,2 0,3 1,5 0,1 1,2 2,3 1,0 2,1 3,1 1,0 2,-1 3,-1 0,0 1,0 1,0l1 -4 3 0 0 6c0,1 -2,1 -3,2 -1,0 -3,0 -5,0z"/>
  <polygon id="45" class="fil3" points="1090,213 1090,210 1092,210 1092,192 1090,192 1090,189 1108,189 1108,195 1104,195 1104,193 1097,193 1097,199 1105,199 1105,202 1097,202 1097,209 1105,209 1105,206 1108,206 1108,213 "/>
  <polygon id="46" class="fil5 str0" points="25,213 25,210 28,210 28,192 25,192 25,189 28,189 33,189 36,189 36,192 33,192 33,209 39,209 40,206 43,206 43,213 "/>
  <path id="47" class="fil5 str0" d="M45 213l0 -3 2 0 7 -21 5 0 7 21 2 0 0 3 -8 0 0 -3 2 0 -1 -4 -9 0 -1 4 2 0 0 3 -8 0zm8 -10l7 0 -3 -8 0 -1 -1 0 0 1 -3 8z"/>
  <polygon id="48" class="fil5 str0" points="73,213 73,210 75,210 75,193 71,193 71,196 67,196 67,189 88,189 88,196 85,196 84,193 80,193 80,210 83,210 83,213 "/>
  <polygon id="49" class="fil5 str0" points="90,213 90,210 93,210 93,192 90,192 90,189 100,189 100,192 97,192 97,210 100,210 100,213 "/>
  <polygon id="50" class="fil5 str0" points="102,213 102,210 104,210 104,192 102,192 102,189 104,189 109,189 119,206 120,206 120,192 116,192 116,189 124,189 126,189 126,192 124,192 124,213 119,213 109,197 108,197 108,210 112,210 112,213 "/>
  <path id="51" class="fil5 str0" d="M136 213l0 -3 2 0 7 -21 5 0 8 21 1 0 0 3 -8 0 0 -3 2 0 -1 -4 -9 0 -1 4 2 0 0 3 -8 0zm8 -10l7 0 -3 -8 0 -1 0 0 -1 1 -3 8z"/>
  <polygon id="52" class="fil5 str0" points="161,213 161,210 163,210 163,192 161,192 161,189 163,189 170,189 177,206 177,206 183,189 193,189 193,192 190,192 190,210 193,210 193,213 183,213 183,210 186,210 186,205 186,194 186,194 179,213 175,213 168,194 168,194 168,204 168,210 171,210 171,213 "/>
  <polygon id="53" class="fil5 str0" points="195,213 195,210 197,210 197,192 195,192 195,189 213,189 213,195 209,195 209,193 202,193 202,199 210,199 210,202 202,202 202,209 210,209 210,206 213,206 213,213 "/>
  <path id="54" class="fil5 str0" d="M216 213l0 -3 2 0 0 -18 -2 0 0 -3 11 0c2,0 4,0 5,1 1,0 2,1 3,2 1,1 1,3 1,4 0,2 0,3 -1,4 -1,1 -2,2 -3,3 -1,0 -3,0 -4,0l-5 0 0 7 3 0 0 3 -10 0zm15 0l-4 -10 5 -1 3 8 2 0 0 3 -6 0zm-8 -13l4 0c2,0 3,-1 3,-1 1,-1 1,-2 1,-3 0,-1 0,-2 -1,-2 0,-1 -1,-1 -3,-1l-4 0 0 7z"/>
  <polygon id="55" class="fil5 str0" points="239,213 239,210 242,210 242,192 239,192 239,189 249,189 249,192 246,192 246,210 249,210 249,213 "/>
  <path id="56" class="fil5 str0" d="M262 213c-2,0 -4,0 -6,-1 -2,-1 -3,-3 -4,-4 -1,-2 -1,-4 -1,-7l0 0c0,-3 0,-5 1,-7 1,-1 2,-3 4,-4 1,-1 3,-1 6,-1 1,0 3,0 4,0 2,1 3,2 4,3l0 5 -4 0 0 -3c0,-1 -1,-1 -1,-1 -1,0 -1,0 -2,0 0,-1 -1,-1 -1,-1 -2,0 -3,1 -4,1 -1,1 -1,2 -2,3 0,1 -1,3 -1,5l0 0c0,2 1,3 1,5 1,1 1,2 2,3 1,0 3,1 4,1 1,0 1,-1 2,-1 1,0 1,0 2,0l0 -4 4 0 0 6c-1,1 -2,1 -3,2 -2,0 -3,0 -5,0z"/>
  <path id="57" class="fil5 str0" d="M272 213l0 -3 2 0 7 -21 5 0 8 21 1 0 0 3 -8 0 0 -3 2 0 -1 -4 -9 0 -1 4 2 0 0 3 -8 0zm9 -10l6 0 -3 -8 0 -1 0 0 -1 1 -2 8z"/>
  <polygon id="58" class="fil5 str0" points="305,213 305,210 308,210 308,192 305,192 305,189 315,189 315,192 312,192 312,199 322,199 322,192 320,192 320,189 322,189 327,189 329,189 329,192 327,192 327,210 329,210 329,213 320,213 320,210 322,210 322,203 312,203 312,210 315,210 315,213 "/>
  <polygon id="59" class="fil5 str0" points="331,213 331,210 334,210 334,192 331,192 331,189 341,189 341,192 339,192 339,210 341,210 341,213 "/>
  <path id="60" class="fil5 str0" d="M354 213c-2,0 -4,0 -6,-1 -2,-1 -3,-3 -4,-4 -1,-2 -1,-4 -1,-6l0 -1c0,-3 0,-5 1,-7 1,-1 2,-3 4,-4 2,-1 3,-1 6,-1 1,0 3,0 4,0 2,1 3,2 4,3l0 5 -3 0 -1 -3c0,-1 -1,-1 -2,-1 0,0 -1,-1 -2,-1 -1,0 -2,1 -3,1 -1,1 -2,2 -3,3 0,2 0,3 0,5l0 1c0,1 0,3 0,4 1,1 2,2 3,3 1,0 2,1 3,1 1,0 2,-1 2,-1 1,0 2,0 2,0l0 -4 -3 -1 0 -3 8 0 0 10c-1,0 -2,1 -4,2 -1,0 -3,0 -5,0z"/>
  <polygon id="61" class="fil5 str0" points="365,213 365,210 368,210 368,192 365,192 365,189 375,189 375,192 373,192 373,199 382,199 382,192 380,192 380,189 382,189 387,189 390,189 390,192 387,192 387,210 390,210 390,213 380,213 380,210 382,210 382,203 373,203 373,210 375,210 375,213 "/>
  <path id="62" class="fil5 str0" d="M400 213l0 -3 2 0 0 -18 -2 0 0 -3 2 0 9 0c2,0 3,0 5,1 1,1 2,2 3,3 1,1 1,2 1,4 0,1 0,3 -1,4 -1,1 -2,2 -3,2 -2,1 -3,1 -5,1l-4 0 0 6 3 0 0 3 -10 0zm7 -12l4 0c1,0 2,-1 3,-2 1,0 1,-1 1,-2 0,-1 0,-2 -1,-3 -1,-1 -2,-1 -3,-1l-4 0 0 8z"/>
  <polygon id="63" class="fil5 str0" points="421,213 421,210 424,210 424,192 421,192 421,189 440,189 440,195 436,195 436,193 429,193 429,199 437,199 437,202 429,202 429,209 436,209 437,206 440,206 440,213 "/>
  <path id="64" class="fil5 str0" d="M443 213l0 -3 2 0 0 -18 -2 0 0 -3 11 0c2,0 3,0 5,1 1,0 2,1 3,2 0,1 1,3 1,4 0,2 -1,3 -1,4 -1,1 -2,2 -3,3 -1,0 -3,0 -4,0l-5 0 0 7 3 0 0 3 -10 0zm15 0l-4 -10 4 -1 4 8 2 0 0 3 -6 0zm-8 -13l4 0c1,0 2,-1 3,-1 1,-1 1,-2 1,-3 0,-1 0,-2 -1,-2 -1,-1 -2,-1 -3,-1l-4 0 0 7z"/>
  <polygon id="65" class="fil5 str0" points="466,213 466,210 468,210 468,192 466,192 466,189 485,189 485,196 481,196 481,193 473,193 473,199 481,199 481,203 473,203 473,210 476,210 476,213 "/>
  <path id="66" class="fil5 str0" d="M497 213c-2,0 -3,0 -5,-1 -1,0 -2,-1 -3,-2 -1,-1 -2,-3 -2,-4 -1,-2 -1,-3 -1,-5l0 0c0,-2 0,-4 1,-5 0,-1 1,-3 2,-4 1,-1 2,-2 3,-2 2,-1 3,-1 5,-1 1,0 3,0 4,1 1,0 3,1 4,2 0,1 1,3 2,4 0,1 1,3 1,5l0 0c0,2 -1,3 -1,5 -1,1 -2,3 -2,4 -1,1 -3,2 -4,2 -1,1 -3,1 -4,1zm0 -4c1,0 2,0 3,-1 1,0 2,-1 2,-2 1,-2 1,-3 1,-5l0 0c0,-2 0,-3 -1,-5 0,-1 -1,-2 -2,-3 -1,0 -2,-1 -3,-1 -2,0 -3,1 -4,1 -1,1 -1,2 -2,3 0,2 0,3 0,5l0 0c0,2 0,3 0,5 1,1 1,2 2,2 1,1 2,1 4,1z"/>
  <path id="67" class="fil5 str0" d="M509 213l0 -3 3 0 0 -18 -3 0 0 -3 12 0c2,0 3,0 4,1 2,0 3,1 3,2 1,1 1,3 1,4 0,2 0,3 -1,4 0,1 -1,2 -2,3 -2,0 -3,0 -5,0l-4 0 0 7 2 0 0 3 -10 0zm16 0l-4 -10 4 -1 4 8 2 0 0 3 -6 0zm-8 -13l4 0c1,0 2,-1 3,-1 0,-1 1,-2 1,-3 0,-1 -1,-2 -1,-2 -1,-1 -2,-1 -3,-1l-4 0 0 7z"/>
  <polygon id="68" class="fil5 str0" points="532,213 532,210 535,210 535,192 532,192 532,189 535,189 542,189 549,206 549,206 555,189 565,189 565,192 562,192 562,210 565,210 565,213 555,213 555,210 557,210 557,205 557,194 557,194 550,213 547,213 539,194 539,194 539,204 539,210 542,210 542,213 "/>
  <path id="69" class="fil5 str0" d="M564 213l0 -3 2 0 8 -21 5 0 7 21 2 0 0 3 -8 0 0 -3 1 0 -1 -4 -8 0 -1 4 1 0 0 3 -8 0zm9 -10l6 0 -3 -8 0 -1 0 0 0 1 -3 8z"/>
  <polygon id="70" class="fil5 str0" points="589,213 589,210 592,210 592,192 589,192 589,189 592,189 597,189 607,206 607,206 607,192 604,192 604,189 611,189 614,189 614,192 611,192 611,213 607,213 596,197 596,197 596,210 599,210 599,213 "/>
  <path id="71" class="fil5 str0" d="M627 213c-2,0 -4,0 -6,-1 -2,-1 -3,-3 -4,-4 -1,-2 -2,-4 -2,-7l0 0c0,-3 1,-5 2,-7 1,-1 2,-3 4,-4 1,-1 3,-1 6,-1 1,0 3,0 4,0 2,1 3,2 4,3l0 5 -4 0 0 -3c0,-1 -1,-1 -1,-1 -1,0 -1,0 -2,0 0,-1 -1,-1 -1,-1 -2,0 -3,1 -4,1 -1,1 -1,2 -2,3 0,1 -1,3 -1,5l0 0c0,2 1,3 1,5 1,1 1,2 2,3 1,0 3,1 4,1 1,0 1,-1 2,-1 1,0 1,0 2,0l0 -4 4 0 0 6c-1,1 -2,1 -4,2 -1,0 -2,0 -4,0z"/>
  <polygon id="72" class="fil5 str0" points="637,213 637,210 640,210 640,192 637,192 637,189 656,189 656,195 652,195 652,193 644,193 644,199 653,199 653,202 644,202 644,209 652,209 652,206 656,206 656,213 "/>
  <path id="73" class="fil5 str0" d="M678 213c-2,0 -4,0 -6,-1 -2,-1 -3,-3 -4,-4 -1,-2 -1,-4 -1,-7l0 0c0,-3 0,-5 1,-7 1,-1 2,-3 4,-4 2,-1 4,-1 6,-1 1,0 3,0 4,0 2,1 3,2 4,3l0 5 -3 0 -1 -3c0,-1 -1,-1 -1,-1 -1,0 -1,0 -1,0 -1,-1 -2,-1 -2,-1 -1,0 -3,1 -4,1 -1,1 -1,2 -2,3 0,1 -1,3 -1,5l0 0c0,2 1,3 1,5 1,1 2,2 3,3 1,0 2,1 3,1 1,0 2,-1 2,-1 1,0 2,0 2,0l1 -4 3 0 0 6c-1,1 -2,1 -3,2 -2,0 -3,0 -5,0z"/>
  <path id="74" class="fil5 str0" d="M699 213c-1,0 -3,0 -4,-1 -1,0 -3,-1 -4,-2 -1,-1 -1,-3 -2,-4 0,-2 -1,-3 -1,-5l0 0c0,-2 1,-4 1,-5 1,-1 1,-3 2,-4 1,-1 2,-2 4,-2 1,-1 3,-1 4,-1 2,0 3,0 5,1 1,0 2,1 3,2 1,1 2,3 2,4 1,1 1,3 1,5l0 0c0,2 0,3 -1,5 0,1 -1,3 -2,4 -1,1 -2,2 -3,2 -2,1 -3,1 -5,1zm0 -4c2,0 3,0 4,-1 0,0 1,-1 2,-2 0,-2 0,-3 0,-5l0 0c0,-2 0,-3 0,-5 -1,-1 -2,-2 -2,-3 -1,0 -2,-1 -4,-1 -1,0 -2,1 -3,1 -1,1 -2,2 -2,3 -1,2 -1,3 -1,5l0 0c0,2 0,3 1,5 0,1 1,2 2,2 1,1 2,1 3,1z"/>
  <polygon id="75" class="fil5 str0" points="712,213 712,210 714,210 714,192 712,192 712,189 714,189 722,189 728,206 728,206 734,189 744,189 744,192 741,192 741,210 744,210 744,213 734,213 734,210 737,210 737,205 737,194 737,194 730,213 726,213 719,194 719,194 719,204 719,210 722,210 722,213 "/>
  <path id="76" class="fil5 str0" d="M746 213l0 -3 2 0 0 -18 -2 0 0 -3 2 0 9 0c2,0 3,0 5,1 1,1 2,2 3,3 0,1 1,2 1,4 0,1 -1,3 -1,4 -1,1 -2,2 -3,2 -2,1 -3,1 -5,1l-4 0 0 6 3 0 0 3 -10 0zm7 -12l4 0c1,0 2,-1 3,-2 1,0 1,-1 1,-2 0,-1 0,-2 -1,-3 -1,-1 -2,-1 -3,-1l-4 0 0 8z"/>
  <path id="77" class="fil5 str0" d="M779 213c-2,0 -3,0 -5,-1 -1,0 -2,-1 -3,-3 -1,-1 -1,-2 -1,-4l0 -13 -3 0 0 -3 10 0 0 3 -3 0 0 13c0,1 1,2 1,2 0,1 1,2 2,2 0,0 1,1 2,1 1,0 2,-1 3,-1 0,0 1,-1 1,-2 1,0 1,-1 1,-2l0 -13 -3 0 0 -3 10 0 0 3 -2 0 0 13c0,2 -1,3 -2,4 0,2 -1,3 -3,3 -1,1 -3,1 -5,1z"/>
  <polygon id="78" class="fil5 str0" points="798,213 798,210 801,210 801,193 796,193 796,196 793,196 793,189 814,189 814,196 810,196 810,193 806,193 806,210 808,210 808,213 "/>
  <polygon id="79" class="fil5 str0" points="815,213 815,210 818,210 818,192 815,192 815,189 825,189 825,192 823,192 823,210 825,210 825,213 "/>
  <polygon id="80" class="fil5 str0" points="827,213 827,210 830,210 830,192 827,192 827,189 830,189 835,189 845,206 845,206 845,192 842,192 842,189 849,189 852,189 852,192 849,192 849,213 845,213 834,197 834,197 834,210 837,210 837,213 "/>
  <path id="81" class="fil5 str0" d="M864 213c-2,0 -4,0 -6,-1 -1,-1 -3,-3 -3,-4 -1,-2 -2,-4 -2,-6l0 -1c0,-3 1,-5 2,-7 0,-1 2,-3 3,-4 2,-1 4,-1 6,-1 2,0 3,0 5,0 1,1 3,2 4,3l0 5 -4 0 0 -3c-1,-1 -1,-1 -2,-1 -1,0 -2,-1 -3,-1 -1,0 -2,1 -3,1 -1,1 -2,2 -2,3 -1,2 -1,3 -1,5l0 1c0,1 0,3 1,4 0,1 1,2 2,3 1,0 2,1 4,1 0,0 1,-1 2,-1 1,0 1,0 2,0l0 -4 -4 -1 0 -3 8 0 0 10c-1,0 -2,1 -3,2 -2,0 -4,0 -6,0z"/>
  <path id="82" class="fil5 str0" d="M895 213c-2,0 -4,0 -6,-1 -1,-1 -3,-3 -4,-4 -1,-2 -1,-4 -1,-7l0 0c0,-3 0,-5 1,-7 1,-1 2,-3 4,-4 2,-1 4,-1 6,-1 2,0 3,0 5,0 1,1 2,2 3,3l0 5 -3 0 -1 -3c0,-1 0,-1 -1,-1 0,0 -1,0 -1,0 -1,-1 -1,-1 -2,-1 -1,0 -2,1 -3,1 -1,1 -2,2 -3,3 0,1 0,3 0,5l0 0c0,2 0,3 1,5 0,1 1,2 2,3 1,0 2,1 3,1 1,0 2,-1 2,-1 1,0 2,0 2,0l1 -4 3 0 0 6c-1,1 -2,1 -3,2 -1,0 -3,0 -5,0z"/>
  <path id="83" class="fil5 str0" d="M916 213c-1,0 -3,0 -4,-1 -1,0 -2,-1 -3,-2 -1,-1 -2,-3 -3,-4 0,-2 0,-3 0,-5l0 0c0,-2 0,-4 0,-5 1,-1 2,-3 3,-4 1,-1 2,-2 3,-2 1,-1 3,-1 4,-1 2,0 4,0 5,1 1,0 2,1 3,2 1,1 2,3 3,4 0,1 0,3 0,5l0 0c0,2 0,3 0,5 -1,1 -2,3 -3,4 -1,1 -2,2 -3,2 -1,1 -3,1 -5,1zm0 -4c2,0 3,0 4,-1 1,0 1,-1 2,-2 0,-2 1,-3 1,-5l0 0c0,-2 -1,-3 -1,-5 -1,-1 -1,-2 -2,-3 -1,0 -2,-1 -4,-1 -1,0 -2,1 -3,1 -1,1 -1,2 -2,3 0,2 -1,3 -1,5l0 0c0,2 1,3 1,5 1,1 1,2 2,2 1,1 2,1 3,1z"/>
  <polygon id="84" class="fil5 str0" points="929,213 929,210 932,210 932,192 929,192 929,189 932,189 937,189 947,206 947,206 947,192 944,192 944,189 951,189 954,189 954,192 951,192 951,213 947,213 936,197 936,197 936,210 939,210 939,213 "/>
  <polygon id="85" class="fil5 str0" points="955,213 955,210 958,210 958,192 955,192 955,189 974,189 974,196 971,196 970,193 963,193 963,199 971,199 971,203 963,203 963,210 965,210 965,213 "/>
  <polygon id="86" class="fil5 str0" points="976,213 976,210 979,210 979,192 976,192 976,189 995,189 995,195 991,195 991,193 983,193 983,199 991,199 991,202 983,202 983,209 991,209 991,206 995,206 995,213 "/>
  <path id="87" class="fil5 str0" d="M997 213l0 -3 3 0 0 -18 -3 0 0 -3 12 0c2,0 3,0 4,1 2,0 3,1 3,2 1,1 2,3 2,4 0,2 -1,3 -2,4 0,1 -1,2 -2,3 -2,0 -3,0 -5,0l-4 0 0 7 2 0 0 3 -10 0zm16 0l-4 -10 4 -1 4 8 2 0 0 3 -6 0zm-8 -13l4 0c1,0 2,-1 3,-1 0,-1 1,-2 1,-3 0,-1 -1,-2 -1,-2 -1,-1 -2,-1 -3,-1l-4 0 0 7z"/>
  <polygon id="88" class="fil5 str0" points="1020,213 1020,210 1023,210 1023,192 1020,192 1020,189 1039,189 1039,195 1035,195 1035,193 1028,193 1028,199 1036,199 1036,202 1028,202 1028,209 1035,209 1036,206 1039,206 1039,213 "/>
  <polygon id="89" class="fil5 str0" points="1042,213 1042,210 1044,210 1044,192 1042,192 1042,189 1044,189 1049,189 1060,206 1060,206 1060,192 1057,192 1057,189 1064,189 1066,189 1066,192 1064,192 1064,213 1059,213 1049,197 1049,197 1049,210 1052,210 1052,213 "/>
  <path id="90" class="fil5 str0" d="M1079 213c-2,0 -4,0 -6,-1 -1,-1 -3,-3 -4,-4 -1,-2 -1,-4 -1,-7l0 0c0,-3 0,-5 1,-7 1,-1 3,-3 4,-4 2,-1 4,-1 6,-1 2,0 3,0 5,0 1,1 2,2 3,3l0 5 -3 0 -1 -3c0,-1 0,-1 -1,-1 0,0 -1,0 -1,0 -1,-1 -1,-1 -2,-1 -1,0 -2,1 -3,1 -1,1 -2,2 -2,3 -1,1 -1,3 -1,5l0 0c0,2 0,3 1,5 0,1 1,2 2,3 1,0 2,1 3,1 1,0 2,-1 3,-1 0,0 1,0 1,0l1 -4 3 0 0 6c0,1 -2,1 -3,2 -1,0 -3,0 -5,0z"/>
  <polygon id="91" class="fil5 str0" points="1090,213 1090,210 1092,210 1092,192 1090,192 1090,189 1108,189 1108,195 1104,195 1104,193 1097,193 1097,199 1105,199 1105,202 1097,202 1097,209 1105,209 1105,206 1108,206 1108,213 "/>
 </g>
</svg>
