<?xml version="1.0" encoding="UTF-8"?>
<!DOCTYPE svg PUBLIC "-//W3C//DTD SVG 1.1//EN" "http://www.w3.org/Graphics/SVG/1.1/DTD/svg11.dtd">
<!-- Creator: CorelDRAW X8 -->
<svg xmlns="http://www.w3.org/2000/svg" xml:space="preserve" width="275px" height="55px" version="1.1" style="shape-rendering:geometricPrecision; text-rendering:geometricPrecision; image-rendering:optimizeQuality; fill-rule:evenodd; clip-rule:evenodd"
viewBox="0 0 275 55"
 xmlns:xlink="http://www.w3.org/1999/xlink">
 <defs>
  <style type="text/css">
   <![CDATA[
    .str0 {stroke:white;stroke-width:0.055}
    .fil2 {fill:none;fill-rule:nonzero}
    .fil0 {fill:white}
    .fil1 {fill:white;fill-rule:nonzero}
   ]]>
  </style>
 </defs>
 <g id="Camada_x0020_2">
  <metadata id="CorelCorpID_0Corel-Layer"/>
  <path class="fil0" d="M150 5c0,0 0,0 0,0 0,0 0,0 0,0 0,0 0,0 0,0 0,0 0,0 0,0 0,0 0,0 0,0 0,0 0,0 0,0 0,9 0,18 -1,27 0,1 0,1 -1,1 0,0 0,0 -1,0 0,0 0,0 0,0 0,0 0,0 0,0 0,1 0,9 0,9 0,0 0,0 0,0 0,0 0,0 0,0 0,0 0,0 0,0 11,0 21,0 32,0 0,-7 0,-7 0,-11 0,0 0,0 0,0 -2,-1 -5,-1 -8,-2 0,-1 0,-1 0,-2 0,0 0,0 0,0 0,-1 0,-1 0,-1 1,0 0,0 0,0l-1 0c0,0 0,0 0,0l0 0c0,0 0,0 0,0 0,0 -1,0 -2,-1l0 0c0,0 0,0 0,0l0 0c0,1 0,1 -1,1 0,0 0,0 0,0 0,0 0,0 -1,0 0,0 0,0 0,0l0 1 0 0 0 0 -1 0 0 0 -2 0c0,0 0,0 0,0 0,0 0,0 0,0 0,0 -2,-2 -2,-2 0,0 0,0 -1,0l0 0c0,0 0,0 0,0 0,1 -3,2 -3,2l0 0c0,1 0,1 0,2 -1,0 -2,0 -2,1 0,0 -1,0 -1,0 0,0 0,0 0,0l0 -1c-1,-22 -1,-3 -1,-23 0,0 0,0 0,-1 0,0 0,0 0,0 0,0 0,0 0,0l0 0c0,0 0,0 0,0 0,0 0,0 0,0 0,-2 0,-2 0,-2 0,0 0,0 0,0 -2,0 -2,0 -3,0 0,0 0,0 0,0l0 1c0,0 0,1 0,1z"/>
  <path class="fil1" d="M17 42c-3,0 -6,-1 -8,-2 -2,-2 -4,-3 -5,-6 -2,-2 -2,-5 -2,-8l0 -1c0,-3 0,-6 2,-8 1,-3 3,-4 5,-6 2,-1 5,-2 8,-2 2,0 4,1 6,1 1,1 3,2 5,3l0 8 -5 0 -1 -5c0,-1 -1,-1 -1,-1 -1,0 -1,-1 -2,-1 -1,0 -2,0 -2,0 -2,0 -4,1 -5,1 -1,1 -2,3 -3,4 0,2 -1,4 -1,6l0 1c0,2 1,4 1,6 1,1 2,3 3,3 2,1 3,2 5,2 1,0 2,0 3,-1 1,0 1,0 2,0l1 -5 5 0 0 8c-2,1 -3,1 -5,2 -2,0 -4,1 -6,1z"/>
  <path id="1" class="fil1" d="M29 41l0 -4 2 0 10 -27 7 0 9 27 3 0 0 4 -11 0 0 -4 2 0 -1 -4 -11 0 -2 4 3 0 0 4 -11 0zm11 -13l8 0 -3 -11 -1 -1 0 0 0 1 -4 11z"/>
  <path id="2" class="fil1" d="M61 41l0 -4 3 0 0 -23 -3 0 0 -4 14 0c3,0 5,0 7,1 1,1 3,2 4,3 1,1 1,3 1,5 0,2 0,4 -1,5 -1,2 -3,3 -4,3 -2,1 -4,2 -6,2l-6 0 0 8 4 0 0 4 -13 0zm20 0l-6 -13 6 -2 5 11 2 0 0 4 -7 0zm-11 -17l5 0c2,0 4,0 4,-1 1,-1 2,-2 2,-4 0,-1 -1,-2 -2,-3 0,-1 -2,-1 -4,-1l-5 0 0 9z"/>
  <polygon id="3" class="fil1" points="90,41 90,37 93,37 93,14 90,14 90,10 93,10 99,10 103,10 103,14 99,14 99,36 108,36 108,32 113,32 113,41 "/>
  <path id="4" class="fil1" d="M114 41l0 -4 2 0 10 -27 7 0 10 27 2 0 0 4 -11 0 0 -4 2 0 -1 -4 -11 0 -2 4 3 0 0 4 -11 0zm11 -13l8 0 -3 -11 -1 -1 0 0 0 1 -4 11z"/>
  <path class="fil1" d="M181 41l0 -4 10 -11c1,-1 2,-2 3,-3 0,-1 1,-2 1,-2 0,-1 1,-2 1,-3 0,-1 -1,-2 -2,-3 0,-1 -1,-1 -3,-1 -1,0 -2,1 -3,1 -1,1 -1,3 -1,4l-6 0 0 0c0,-2 0,-3 1,-5 1,-1 2,-3 4,-3 1,-1 3,-2 5,-2 3,0 4,1 6,1 2,1 3,2 4,4 0,1 1,3 1,4 0,2 0,3 -1,4 0,1 -1,2 -2,3 -1,2 -2,3 -4,5l-6 6 0 0 8 0 1 -3 5 0 0 8 -22 0z"/>
  <path id="1" class="fil1" d="M216 42c-4,0 -6,-2 -8,-4 -2,-2 -3,-5 -3,-9l0 -7c0,-4 1,-7 3,-10 2,-2 4,-3 8,-3 3,0 5,1 7,3 2,3 3,6 3,10l0 7c0,4 -1,7 -3,9 -2,2 -4,4 -7,4zm0 -5c1,0 2,-1 3,-2 1,-1 1,-3 1,-6l0 -8c0,-2 0,-4 -1,-5 -1,-1 -2,-2 -3,-2 -2,0 -3,1 -4,2 0,1 -1,3 -1,5l0 8c0,3 1,5 1,6 1,1 2,2 4,2z"/>
  <path id="2" class="fil1" d="M228 41l0 -4 11 -11c1,-1 2,-2 2,-3 1,-1 1,-2 1,-2 1,-1 1,-2 1,-3 0,-1 -1,-2 -1,-3 -1,-1 -2,-1 -3,-1 -2,0 -3,1 -4,1 0,1 -1,3 -1,4l-6 0 0 0c0,-2 0,-3 1,-5 1,-1 2,-3 4,-3 2,-1 3,-2 6,-2 2,0 4,1 5,1 2,1 3,2 4,4 1,1 1,3 1,4 0,2 0,3 -1,4 0,1 -1,2 -2,3 -1,2 -2,3 -3,5l-6 6 0 0 8 0 0 -3 5 0 0 8 -22 0z"/>
  <path id="3" class="fil1" d="M252 41l0 -4 10 -11c1,-1 2,-2 2,-3 1,-1 1,-2 2,-2 0,-1 0,-2 0,-3 0,-1 0,-2 -1,-3 -1,-1 -2,-1 -3,-1 -2,0 -3,1 -3,1 -1,1 -2,3 -2,4l-6 0 0 0c0,-2 1,-3 1,-5 1,-1 3,-3 4,-3 2,-1 4,-2 6,-2 2,0 4,1 5,1 2,1 3,2 4,4 1,1 1,3 1,4 0,2 0,3 0,4 -1,1 -2,2 -2,3 -1,2 -3,3 -4,5l-6 6 0 0 8 0 0 -3 5 0 0 8 -21 0z"/>
  <polygon class="fil1" points="6,52 6,51 7,51 7,47 6,47 6,46 7,46 8,46 9,46 9,47 8,47 8,51 10,51 10,50 11,50 11,52 "/>
  <path id="1" class="fil1" d="M11 52l0 -1 0 0 2 -5 1 0 2 5 1 0 0 1 -2 0 0 -1 0 0 0 -1 -2 0 -1 1 1 0 0 1 -2 0zm2 -3l2 0 -1 -2 0 0 0 0 0 0 -1 2z"/>
  <polygon id="2" class="fil1" points="18,52 18,51 18,51 18,47 17,47 17,48 16,48 16,46 22,46 22,48 21,48 21,47 20,47 20,51 20,51 20,52 "/>
  <polygon id="3" class="fil1" points="22,52 22,51 23,51 23,47 22,47 22,46 24,46 24,47 24,47 24,51 24,51 24,52 "/>
  <polygon id="4" class="fil1" points="25,52 25,51 25,51 25,47 25,47 25,46 25,46 27,46 29,50 29,50 29,47 28,47 28,46 30,46 31,46 31,47 30,47 30,52 29,52 26,48 26,48 26,51 27,51 27,52 "/>
  <path id="5" class="fil1" d="M33 52l0 -1 0 0 2 -5 2 0 1 5 1 0 0 1 -2 0 0 -1 0 0 0 -1 -2 0 0 1 0 0 0 1 -2 0zm2 -3l2 0 -1 -2 0 0 0 0 0 0 -1 2z"/>
  <polygon id="6" class="fil1" points="39,52 39,51 40,51 40,47 39,47 39,46 40,46 41,46 43,50 43,50 45,46 47,46 47,47 46,47 46,51 47,51 47,52 45,52 45,51 45,51 45,50 45,47 45,47 43,52 43,52 41,47 41,47 41,50 41,51 42,51 42,52 "/>
  <polygon id="7" class="fil1" points="47,52 47,51 48,51 48,47 47,47 47,46 52,46 52,48 51,48 51,47 49,47 49,48 51,48 51,49 49,49 49,51 51,51 51,50 52,50 52,52 "/>
  <path id="8" class="fil1" d="M53 52l0 -1 0 0 0 -4 0 0 0 -1 2 0c1,0 1,0 1,0 1,0 1,1 1,1 0,0 0,0 0,1 0,0 0,0 0,1 0,0 0,0 0,0 -1,0 -1,1 -2,1l-1 0 0 1 1 0 0 1 -2 0zm3 0l-1 -3 1 0 1 2 1 0 0 1 -2 0zm-2 -3l1 0c1,0 1,0 1,-1 0,0 0,0 0,0 0,0 0,-1 0,-1 0,0 0,0 -1,0l-1 0 0 2z"/>
  <polygon id="9" class="fil1" points="58,52 58,51 59,51 59,47 58,47 58,46 61,46 61,47 60,47 60,51 61,51 61,52 "/>
  <path id="10" class="fil1" d="M64 52c-1,0 -1,0 -2,0 0,-1 0,-1 -1,-1 0,-1 0,-1 0,-2l0 0c0,-1 0,-1 0,-2 1,0 1,0 1,-1 1,0 1,0 2,0 0,0 0,0 1,0 0,0 0,0 1,1l0 1 -1 0 0 -1c0,0 0,0 -1,0 0,0 0,0 0,0 0,0 0,0 0,0 -1,0 -1,0 -1,0 0,0 -1,0 -1,1 0,0 0,0 0,1l0 0c0,0 0,1 0,1 1,0 1,1 1,1 0,0 0,0 1,0 0,0 0,0 0,0 0,0 1,0 1,0l0 -1 1 0 0 1c0,1 -1,1 -1,1 0,0 -1,0 -1,0z"/>
  <path id="11" class="fil1" d="M66 52l0 -1 1 0 1 -5 2 0 2 5 0 0 0 1 -2 0 0 -1 0 0 0 -1 -2 0 0 1 0 0 0 1 -2 0zm2 -3l2 0 -1 -2 0 0 0 0 0 0 -1 2z"/>
  <polygon id="12" class="fil1" points="74,52 74,51 75,51 75,47 74,47 74,46 77,46 77,47 76,47 76,49 78,49 78,47 78,47 78,46 78,46 80,46 80,46 80,47 80,47 80,51 80,51 80,52 78,52 78,51 78,51 78,49 76,49 76,51 77,51 77,52 "/>
  <polygon id="13" class="fil1" points="81,52 81,51 81,51 81,47 81,47 81,46 83,46 83,47 82,47 82,51 83,51 83,52 "/>
  <path id="14" class="fil1" d="M86 52c0,0 -1,0 -1,0 -1,-1 -1,-1 -1,-1 0,-1 -1,-1 -1,-2l0 0c0,-1 1,-1 1,-2 0,0 0,0 1,-1 0,0 1,0 1,0 1,0 1,0 1,0 1,0 1,0 1,1l0 1 -1 0 0 -1c0,0 0,0 0,0 0,0 -1,0 -1,0 0,0 0,0 -1,0 0,0 0,1 0,1 0,0 0,0 0,1l0 0c0,0 0,1 0,1 0,0 0,1 0,1 1,0 1,0 1,0 0,0 1,0 1,0 0,0 0,0 0,0l0 -1 -1 0 0 -1 2 0 0 2c0,0 0,1 -1,1 0,0 0,0 -1,0z"/>
  <polygon id="15" class="fil1" points="89,52 89,51 90,51 90,47 89,47 89,46 91,46 91,47 91,47 91,49 93,49 93,47 92,47 92,46 93,46 94,46 95,46 95,47 94,47 94,51 95,51 95,52 92,52 92,51 93,51 93,49 91,49 91,51 91,51 91,52 "/>
  <path id="16" class="fil1" d="M97 52l0 -1 1 0 0 -4 -1 0 0 -1 1 0 2 0c1,0 1,0 1,0 1,0 1,1 1,1 0,0 0,1 0,1 0,0 0,1 0,1 0,0 0,0 -1,1 0,0 0,0 -1,0l-1 0 0 1 1 0 0 1 -3 0zm2 -3l1 0c0,0 1,0 1,0 0,-1 0,-1 0,-1 0,0 0,-1 0,-1 0,0 -1,0 -1,0l-1 0 0 2z"/>
  <polygon id="17" class="fil1" points="103,52 103,51 103,51 103,47 103,47 103,46 107,46 107,48 106,48 106,47 104,47 104,48 106,48 106,49 104,49 104,51 106,51 106,50 107,50 107,52 "/>
  <path id="18" class="fil1" d="M108 52l0 -1 0 0 0 -4 0 0 0 -1 3 0c0,0 0,0 1,0 0,0 0,1 0,1 1,0 1,0 1,1 0,0 0,0 -1,1 0,0 0,0 0,0 -1,0 -1,1 -1,1l-1 0 0 1 0 0 0 1 -2 0zm4 0l-1 -3 1 0 0 2 1 0 0 1 -1 0zm-2 -3l1 0c0,0 0,0 0,-1 0,0 1,0 1,0 0,0 -1,-1 -1,-1 0,0 0,0 0,0l-1 0 0 2z"/>
  <polygon id="19" class="fil1" points="113,52 113,51 114,51 114,47 113,47 113,46 118,46 118,48 117,48 117,47 115,47 115,49 117,49 117,49 115,49 115,51 116,51 116,52 "/>
  <path id="20" class="fil1" d="M121 52c0,0 -1,0 -1,0 0,0 -1,-1 -1,-1 0,0 0,0 0,-1 -1,0 -1,-1 -1,-1l0 0c0,-1 0,-1 1,-1 0,-1 0,-1 0,-1 0,0 1,-1 1,-1 0,0 1,0 1,0 0,0 1,0 1,0 0,0 1,1 1,1 0,0 0,0 0,1 1,0 1,0 1,1l0 0c0,0 0,1 -1,1 0,1 0,1 0,1 0,0 -1,1 -1,1 0,0 -1,0 -1,0zm0 -1c0,0 1,0 1,0 0,0 0,-1 0,-1 0,0 0,-1 0,-1l0 0c0,-1 0,-1 0,-1 0,0 0,-1 0,-1 0,0 -1,0 -1,0 0,0 -1,0 -1,0 0,0 0,1 0,1 0,0 -1,0 -1,1l0 0c0,0 1,1 1,1 0,0 0,1 0,1 0,0 1,0 1,0z"/>
  <path id="21" class="fil1" d="M124 52l0 -1 1 0 0 -4 -1 0 0 -1 3 0c0,0 1,0 1,0 0,0 0,1 1,1 0,0 0,0 0,1 0,0 0,0 0,1 -1,0 -1,0 -1,0 0,0 -1,1 -1,1l-1 0 0 1 0 0 0 1 -2 0zm4 0l-1 -3 1 0 1 2 0 0 0 1 -1 0zm-2 -3l1 0c0,0 0,0 1,-1 0,0 0,0 0,0 0,0 0,-1 0,-1 -1,0 -1,0 -1,0l-1 0 0 2z"/>
  <polygon id="22" class="fil1" points="130,52 130,51 130,51 130,47 130,47 130,46 130,46 132,46 134,50 134,50 135,46 137,46 137,47 137,47 137,51 137,51 137,52 135,52 135,51 136,51 136,50 136,47 136,47 134,52 133,52 131,47 131,47 131,50 131,51 132,51 132,52 "/>
  <path id="23" class="fil1" d="M137 52l0 -1 1 0 2 -5 1 0 2 5 0 0 0 1 -2 0 0 -1 1 0 -1 -1 -2 0 0 1 0 0 0 1 -2 0zm3 -3l1 0 -1 -2 0 0 0 0 0 0 0 2z"/>
  <polygon id="24" class="fil1" points="143,52 143,51 144,51 144,47 143,47 143,46 144,46 145,46 148,50 148,50 148,47 147,47 147,46 149,46 150,46 150,47 149,47 149,52 148,52 145,48 145,48 145,51 146,51 146,52 "/>
  <path id="25" class="fil1" d="M153 52c-1,0 -1,0 -2,0 0,-1 -1,-1 -1,-1 0,-1 0,-1 0,-2l0 0c0,-1 0,-1 0,-2 0,0 1,0 1,-1 1,0 1,0 2,0 0,0 0,0 1,0 0,0 0,0 1,1l0 1 -1 0 0 -1c0,0 -1,0 -1,0 0,0 0,0 0,0 0,0 0,0 0,0 -1,0 -1,0 -1,0 0,0 -1,0 -1,1 0,0 0,0 0,1l0 0c0,0 0,1 0,1 0,0 1,1 1,1 0,0 0,0 1,0 0,0 0,0 0,0 0,0 0,0 1,0l0 -1 1 0 0 1c-1,1 -1,1 -1,1 -1,0 -1,0 -1,0z"/>
  <polygon id="26" class="fil1" points="155,52 155,51 156,51 156,47 155,47 155,46 160,46 160,48 159,48 159,47 157,47 157,48 159,48 159,49 157,49 157,51 159,51 159,50 160,50 160,52 "/>
  <path id="27" class="fil1" d="M165 52c0,0 -1,0 -1,0 -1,-1 -1,-1 -1,-1 -1,-1 -1,-1 -1,-2l0 0c0,-1 0,-1 1,-2 0,0 0,0 1,-1 0,0 0,0 1,0 0,0 1,0 1,0 0,0 1,0 1,1l0 1 -1 0 0 -1c0,0 0,0 0,0 0,0 0,0 -1,0 0,0 0,0 0,0 0,0 -1,0 -1,0 0,0 0,0 0,1 0,0 -1,0 -1,1l0 0c0,0 1,1 1,1 0,0 0,1 0,1 0,0 1,0 1,0 0,0 0,0 1,0 0,0 0,0 0,0l0 -1 1 0 0 1c0,1 0,1 -1,1 0,0 0,0 -1,0z"/>
  <path id="28" class="fil1" d="M170 52c0,0 0,0 -1,0 0,0 0,-1 -1,-1 0,0 0,0 0,-1 0,0 0,-1 0,-1l0 0c0,-1 0,-1 0,-1 0,-1 0,-1 0,-1 1,0 1,-1 1,-1 1,0 1,0 1,0 1,0 1,0 1,0 1,0 1,1 1,1 0,0 1,0 1,1 0,0 0,0 0,1l0 0c0,0 0,1 0,1 0,1 -1,1 -1,1 0,0 0,1 -1,1 0,0 0,0 -1,0zm0 -1c1,0 1,0 1,0 0,0 0,-1 1,-1 0,0 0,-1 0,-1l0 0c0,-1 0,-1 0,-1 -1,0 -1,-1 -1,-1 0,0 0,0 -1,0 0,0 0,0 -1,0 0,0 0,1 0,1 0,0 0,0 0,1l0 0c0,0 0,1 0,1 0,0 0,1 0,1 1,0 1,0 1,0z"/>
  <polygon id="29" class="fil1" points="173,52 173,51 174,51 174,47 173,47 173,46 174,46 176,46 177,50 177,50 179,46 181,46 181,47 181,47 181,51 181,51 181,52 179,52 179,51 179,51 179,50 179,47 179,47 178,52 177,52 175,47 175,47 175,50 175,51 176,51 176,52 "/>
  <path id="30" class="fil1" d="M182 52l0 -1 0 0 0 -4 0 0 0 -1 0 0 2 0c1,0 1,0 1,0 1,0 1,1 1,1 0,0 0,1 0,1 0,0 0,1 0,1 0,0 0,0 -1,1 0,0 0,0 -1,0l-1 0 0 1 1 0 0 1 -2 0zm1 -3l1 0c1,0 1,0 1,0 0,-1 0,-1 0,-1 0,0 0,-1 0,-1 0,0 0,0 -1,0l-1 0 0 2z"/>
  <path id="31" class="fil1" d="M190 52c-1,0 -1,0 -2,0 0,0 0,-1 0,-1 -1,0 -1,-1 -1,-1l0 -3 0 0 0 -1 2 0 0 1 0 0 0 3c0,0 0,0 0,1 0,0 0,0 0,0 0,0 0,0 1,0 0,0 0,0 0,0 1,0 1,0 1,0 0,-1 0,-1 0,-1l0 -3 -1 0 0 -1 3 0 0 1 -1 0 0 3c0,0 0,1 0,1 0,0 -1,1 -1,1 0,0 -1,0 -1,0z"/>
  <polygon id="32" class="fil1" points="194,52 194,51 195,51 195,47 194,47 194,48 193,48 193,46 198,46 198,48 197,48 197,47 196,47 196,51 197,51 197,52 "/>
  <polygon id="33" class="fil1" points="199,52 199,51 199,51 199,47 199,47 199,46 201,46 201,47 200,47 200,51 201,51 201,52 "/>
  <polygon id="34" class="fil1" points="201,52 201,51 202,51 202,47 201,47 201,46 202,46 203,46 206,50 206,50 206,47 205,47 205,46 207,46 207,46 207,47 207,47 207,52 206,52 203,48 203,48 203,51 204,51 204,52 "/>
  <path id="35" class="fil1" d="M210 52c0,0 -1,0 -1,0 0,-1 -1,-1 -1,-1 0,-1 0,-1 0,-2l0 0c0,-1 0,-1 0,-2 0,0 1,0 1,-1 0,0 1,0 1,0 1,0 1,0 2,0 0,0 0,0 1,1l0 1 -1 0 -1 -1c0,0 0,0 0,0 0,0 0,0 -1,0 0,0 0,0 0,0 -1,0 -1,1 -1,1 0,0 0,0 0,1l0 0c0,0 0,1 0,1 0,0 0,1 1,1 0,0 0,0 1,0 0,0 0,0 0,0 0,0 0,0 0,0l0 -1 0 0 0 -1 2 0 0 2c-1,0 -1,1 -1,1 -1,0 -1,0 -2,0z"/>
  <path id="36" class="fil1" d="M218 52c-1,0 -1,0 -1,0 -1,-1 -1,-1 -1,-1 -1,-1 -1,-1 -1,-2l0 0c0,-1 0,-1 1,-2 0,0 0,0 0,-1 1,0 1,0 2,0 0,0 1,0 1,0 0,0 1,0 1,1l0 1 -1 0 0 -1c0,0 0,0 0,0 0,0 -1,0 -1,0 0,0 0,0 0,0 0,0 -1,0 -1,0 0,0 0,0 0,1 -1,0 -1,0 -1,1l0 0c0,0 0,1 1,1 0,0 0,1 0,1 0,0 1,0 1,0 0,0 0,0 1,0 0,0 0,0 0,0l0 -1 1 0 0 1c0,1 -1,1 -1,1 0,0 -1,0 -1,0z"/>
  <path id="37" class="fil1" d="M223 52c0,0 -1,0 -1,0 0,0 -1,-1 -1,-1 0,0 0,0 0,-1 0,0 0,-1 0,-1l0 0c0,-1 0,-1 0,-1 0,-1 0,-1 0,-1 0,0 1,-1 1,-1 0,0 1,0 1,0 1,0 1,0 1,0 1,0 1,1 1,1 0,0 0,0 1,1 0,0 0,0 0,1l0 0c0,0 0,1 0,1 -1,1 -1,1 -1,1 0,0 0,1 -1,1 0,0 0,0 -1,0zm0 -1c0,0 1,0 1,0 0,0 0,-1 0,-1 1,0 1,-1 1,-1l0 0c0,-1 0,-1 -1,-1 0,0 0,-1 0,-1 0,0 -1,0 -1,0 0,0 0,0 -1,0 0,0 0,1 0,1 0,0 0,0 0,1l0 0c0,0 0,1 0,1 0,0 0,1 0,1 1,0 1,0 1,0z"/>
  <polygon id="38" class="fil1" points="226,52 226,51 227,51 227,47 226,47 226,46 227,46 228,46 231,50 231,50 231,47 230,47 230,46 232,46 232,46 232,47 232,47 232,52 231,52 228,48 228,48 228,51 229,51 229,52 "/>
  <polygon id="39" class="fil1" points="233,52 233,51 233,51 233,47 233,47 233,46 237,46 237,48 236,48 236,47 234,47 234,49 236,49 236,49 234,49 234,51 235,51 235,52 "/>
  <polygon id="40" class="fil1" points="238,52 238,51 238,51 238,47 238,47 238,46 242,46 242,48 241,48 241,47 239,47 239,48 241,48 241,49 239,49 239,51 241,51 241,50 242,50 242,52 "/>
  <path id="41" class="fil1" d="M243 52l0 -1 0 0 0 -4 0 0 0 -1 3 0c0,0 0,0 1,0 0,0 0,1 0,1 1,0 1,0 1,1 0,0 0,0 -1,1 0,0 0,0 0,0 -1,0 -1,1 -1,1l-1 0 0 1 0 0 0 1 -2 0zm4 0l-1 -3 1 0 1 2 0 0 0 1 -1 0zm-2 -3l1 0c0,0 0,0 0,-1 1,0 1,0 1,0 0,0 0,-1 -1,-1 0,0 0,0 0,0l-1 0 0 2z"/>
  <polygon id="42" class="fil1" points="248,52 248,51 249,51 249,47 248,47 248,46 253,46 253,48 252,48 252,47 250,47 250,48 252,48 252,49 250,49 250,51 252,51 252,50 253,50 253,52 "/>
  <polygon id="43" class="fil1" points="254,52 254,51 254,51 254,47 254,47 254,46 254,46 255,46 258,50 258,50 258,47 257,47 257,46 259,46 260,46 260,47 259,47 259,52 258,52 255,48 255,48 255,51 256,51 256,52 "/>
  <path id="44" class="fil1" d="M263 52c-1,0 -1,0 -2,0 0,-1 0,-1 -1,-1 0,-1 0,-1 0,-2l0 0c0,-1 0,-1 0,-2 1,0 1,0 1,-1 1,0 1,0 2,0 0,0 1,0 1,0 0,0 1,0 1,1l0 1 -1 0 0 -1c0,0 0,0 0,0 -1,0 -1,0 -1,0 0,0 0,0 0,0 -1,0 -1,0 -1,0 0,0 0,0 -1,1 0,0 0,0 0,1l0 0c0,0 0,1 0,1 1,0 1,1 1,1 0,0 1,0 1,0 0,0 0,0 0,0 1,0 1,0 1,0l0 -1 1 0 0 1c0,1 -1,1 -1,1 0,0 -1,0 -1,0z"/>
  <polygon id="45" class="fil1" points="265,52 265,51 266,51 266,47 265,47 265,46 270,46 270,48 269,48 269,47 267,47 267,48 269,48 269,49 267,49 267,51 269,51 269,50 270,50 270,52 "/>
  <polygon id="46" class="fil2 str0" points="6,52 6,51 7,51 7,47 6,47 6,46 7,46 8,46 9,46 9,47 8,47 8,51 10,51 10,50 11,50 11,52 "/>
  <path id="47" class="fil2 str0" d="M11 52l0 -1 0 0 2 -5 1 0 2 5 1 0 0 1 -2 0 0 -1 0 0 0 -1 -2 0 -1 1 1 0 0 1 -2 0zm2 -3l2 0 -1 -2 0 0 0 0 0 0 -1 2z"/>
  <polygon id="48" class="fil2 str0" points="18,52 18,51 18,51 18,47 17,47 17,48 16,48 16,46 22,46 22,48 21,48 21,47 20,47 20,51 20,51 20,52 "/>
  <polygon id="49" class="fil2 str0" points="22,52 22,51 23,51 23,47 22,47 22,46 24,46 24,47 24,47 24,51 24,51 24,52 "/>
  <polygon id="50" class="fil2 str0" points="25,52 25,51 25,51 25,47 25,47 25,46 25,46 27,46 29,50 29,50 29,47 28,47 28,46 30,46 31,46 31,47 30,47 30,52 29,52 26,48 26,48 26,51 27,51 27,52 "/>
  <path id="51" class="fil2 str0" d="M33 52l0 -1 0 0 2 -5 2 0 1 5 1 0 0 1 -2 0 0 -1 0 0 0 -1 -2 0 0 1 0 0 0 1 -2 0zm2 -3l2 0 -1 -2 0 0 0 0 0 0 -1 2z"/>
  <polygon id="52" class="fil2 str0" points="39,52 39,51 40,51 40,47 39,47 39,46 40,46 41,46 43,50 43,50 45,46 47,46 47,47 46,47 46,51 47,51 47,52 45,52 45,51 45,51 45,50 45,47 45,47 43,52 43,52 41,47 41,47 41,50 41,51 42,51 42,52 "/>
  <polygon id="53" class="fil2 str0" points="47,52 47,51 48,51 48,47 47,47 47,46 52,46 52,48 51,48 51,47 49,47 49,48 51,48 51,49 49,49 49,51 51,51 51,50 52,50 52,52 "/>
  <path id="54" class="fil2 str0" d="M53 52l0 -1 0 0 0 -4 0 0 0 -1 2 0c1,0 1,0 1,0 1,0 1,1 1,1 0,0 0,0 0,1 0,0 0,0 0,1 0,0 0,0 0,0 -1,0 -1,1 -2,1l-1 0 0 1 1 0 0 1 -2 0zm3 0l-1 -3 1 0 1 2 1 0 0 1 -2 0zm-2 -3l1 0c1,0 1,0 1,-1 0,0 0,0 0,0 0,0 0,-1 0,-1 0,0 0,0 -1,0l-1 0 0 2z"/>
  <polygon id="55" class="fil2 str0" points="58,52 58,51 59,51 59,47 58,47 58,46 61,46 61,47 60,47 60,51 61,51 61,52 "/>
  <path id="56" class="fil2 str0" d="M64 52c-1,0 -1,0 -2,0 0,-1 0,-1 -1,-1 0,-1 0,-1 0,-2l0 0c0,-1 0,-1 0,-2 1,0 1,0 1,-1 1,0 1,0 2,0 0,0 0,0 1,0 0,0 0,0 1,1l0 1 -1 0 0 -1c0,0 0,0 -1,0 0,0 0,0 0,0 0,0 0,0 0,0 -1,0 -1,0 -1,0 0,0 -1,0 -1,1 0,0 0,0 0,1l0 0c0,0 0,1 0,1 1,0 1,1 1,1 0,0 0,0 1,0 0,0 0,0 0,0 0,0 1,0 1,0l0 -1 1 0 0 1c0,1 -1,1 -1,1 0,0 -1,0 -1,0z"/>
  <path id="57" class="fil2 str0" d="M66 52l0 -1 1 0 1 -5 2 0 2 5 0 0 0 1 -2 0 0 -1 0 0 0 -1 -2 0 0 1 0 0 0 1 -2 0zm2 -3l2 0 -1 -2 0 0 0 0 0 0 -1 2z"/>
  <polygon id="58" class="fil2 str0" points="74,52 74,51 75,51 75,47 74,47 74,46 77,46 77,47 76,47 76,49 78,49 78,47 78,47 78,46 78,46 80,46 80,46 80,47 80,47 80,51 80,51 80,52 78,52 78,51 78,51 78,49 76,49 76,51 77,51 77,52 "/>
  <polygon id="59" class="fil2 str0" points="81,52 81,51 81,51 81,47 81,47 81,46 83,46 83,47 82,47 82,51 83,51 83,52 "/>
  <path id="60" class="fil2 str0" d="M86 52c0,0 -1,0 -1,0 -1,-1 -1,-1 -1,-1 0,-1 -1,-1 -1,-2l0 0c0,-1 1,-1 1,-2 0,0 0,0 1,-1 0,0 1,0 1,0 1,0 1,0 1,0 1,0 1,0 1,1l0 1 -1 0 0 -1c0,0 0,0 0,0 0,0 -1,0 -1,0 0,0 0,0 -1,0 0,0 0,1 0,1 0,0 0,0 0,1l0 0c0,0 0,1 0,1 0,0 0,1 0,1 1,0 1,0 1,0 0,0 1,0 1,0 0,0 0,0 0,0l0 -1 -1 0 0 -1 2 0 0 2c0,0 0,1 -1,1 0,0 0,0 -1,0z"/>
  <polygon id="61" class="fil2 str0" points="89,52 89,51 90,51 90,47 89,47 89,46 91,46 91,47 91,47 91,49 93,49 93,47 92,47 92,46 93,46 94,46 95,46 95,47 94,47 94,51 95,51 95,52 92,52 92,51 93,51 93,49 91,49 91,51 91,51 91,52 "/>
  <path id="62" class="fil2 str0" d="M97 52l0 -1 1 0 0 -4 -1 0 0 -1 1 0 2 0c1,0 1,0 1,0 1,0 1,1 1,1 0,0 0,1 0,1 0,0 0,1 0,1 0,0 0,0 -1,1 0,0 0,0 -1,0l-1 0 0 1 1 0 0 1 -3 0zm2 -3l1 0c0,0 1,0 1,0 0,-1 0,-1 0,-1 0,0 0,-1 0,-1 0,0 -1,0 -1,0l-1 0 0 2z"/>
  <polygon id="63" class="fil2 str0" points="103,52 103,51 103,51 103,47 103,47 103,46 107,46 107,48 106,48 106,47 104,47 104,48 106,48 106,49 104,49 104,51 106,51 106,50 107,50 107,52 "/>
  <path id="64" class="fil2 str0" d="M108 52l0 -1 0 0 0 -4 0 0 0 -1 3 0c0,0 0,0 1,0 0,0 0,1 0,1 1,0 1,0 1,1 0,0 0,0 -1,1 0,0 0,0 0,0 -1,0 -1,1 -1,1l-1 0 0 1 0 0 0 1 -2 0zm4 0l-1 -3 1 0 0 2 1 0 0 1 -1 0zm-2 -3l1 0c0,0 0,0 0,-1 0,0 1,0 1,0 0,0 -1,-1 -1,-1 0,0 0,0 0,0l-1 0 0 2z"/>
  <polygon id="65" class="fil2 str0" points="113,52 113,51 114,51 114,47 113,47 113,46 118,46 118,48 117,48 117,47 115,47 115,49 117,49 117,49 115,49 115,51 116,51 116,52 "/>
  <path id="66" class="fil2 str0" d="M121 52c0,0 -1,0 -1,0 0,0 -1,-1 -1,-1 0,0 0,0 0,-1 -1,0 -1,-1 -1,-1l0 0c0,-1 0,-1 1,-1 0,-1 0,-1 0,-1 0,0 1,-1 1,-1 0,0 1,0 1,0 0,0 1,0 1,0 0,0 1,1 1,1 0,0 0,0 0,1 1,0 1,0 1,1l0 0c0,0 0,1 -1,1 0,1 0,1 0,1 0,0 -1,1 -1,1 0,0 -1,0 -1,0zm0 -1c0,0 1,0 1,0 0,0 0,-1 0,-1 0,0 0,-1 0,-1l0 0c0,-1 0,-1 0,-1 0,0 0,-1 0,-1 0,0 -1,0 -1,0 0,0 -1,0 -1,0 0,0 0,1 0,1 0,0 -1,0 -1,1l0 0c0,0 1,1 1,1 0,0 0,1 0,1 0,0 1,0 1,0z"/>
  <path id="67" class="fil2 str0" d="M124 52l0 -1 1 0 0 -4 -1 0 0 -1 3 0c0,0 1,0 1,0 0,0 0,1 1,1 0,0 0,0 0,1 0,0 0,0 0,1 -1,0 -1,0 -1,0 0,0 -1,1 -1,1l-1 0 0 1 0 0 0 1 -2 0zm4 0l-1 -3 1 0 1 2 0 0 0 1 -1 0zm-2 -3l1 0c0,0 0,0 1,-1 0,0 0,0 0,0 0,0 0,-1 0,-1 -1,0 -1,0 -1,0l-1 0 0 2z"/>
  <polygon id="68" class="fil2 str0" points="130,52 130,51 130,51 130,47 130,47 130,46 130,46 132,46 134,50 134,50 135,46 137,46 137,47 137,47 137,51 137,51 137,52 135,52 135,51 136,51 136,50 136,47 136,47 134,52 133,52 131,47 131,47 131,50 131,51 132,51 132,52 "/>
  <path id="69" class="fil2 str0" d="M137 52l0 -1 1 0 2 -5 1 0 2 5 0 0 0 1 -2 0 0 -1 1 0 -1 -1 -2 0 0 1 0 0 0 1 -2 0zm3 -3l1 0 -1 -2 0 0 0 0 0 0 0 2z"/>
  <polygon id="70" class="fil2 str0" points="143,52 143,51 144,51 144,47 143,47 143,46 144,46 145,46 148,50 148,50 148,47 147,47 147,46 149,46 150,46 150,47 149,47 149,52 148,52 145,48 145,48 145,51 146,51 146,52 "/>
  <path id="71" class="fil2 str0" d="M153 52c-1,0 -1,0 -2,0 0,-1 -1,-1 -1,-1 0,-1 0,-1 0,-2l0 0c0,-1 0,-1 0,-2 0,0 1,0 1,-1 1,0 1,0 2,0 0,0 0,0 1,0 0,0 0,0 1,1l0 1 -1 0 0 -1c0,0 -1,0 -1,0 0,0 0,0 0,0 0,0 0,0 0,0 -1,0 -1,0 -1,0 0,0 -1,0 -1,1 0,0 0,0 0,1l0 0c0,0 0,1 0,1 0,0 1,1 1,1 0,0 0,0 1,0 0,0 0,0 0,0 0,0 0,0 1,0l0 -1 1 0 0 1c-1,1 -1,1 -1,1 -1,0 -1,0 -1,0z"/>
  <polygon id="72" class="fil2 str0" points="155,52 155,51 156,51 156,47 155,47 155,46 160,46 160,48 159,48 159,47 157,47 157,48 159,48 159,49 157,49 157,51 159,51 159,50 160,50 160,52 "/>
  <path id="73" class="fil2 str0" d="M165 52c0,0 -1,0 -1,0 -1,-1 -1,-1 -1,-1 -1,-1 -1,-1 -1,-2l0 0c0,-1 0,-1 1,-2 0,0 0,0 1,-1 0,0 0,0 1,0 0,0 1,0 1,0 0,0 1,0 1,1l0 1 -1 0 0 -1c0,0 0,0 0,0 0,0 0,0 -1,0 0,0 0,0 0,0 0,0 -1,0 -1,0 0,0 0,0 0,1 0,0 -1,0 -1,1l0 0c0,0 1,1 1,1 0,0 0,1 0,1 0,0 1,0 1,0 0,0 0,0 1,0 0,0 0,0 0,0l0 -1 1 0 0 1c0,1 0,1 -1,1 0,0 0,0 -1,0z"/>
  <path id="74" class="fil2 str0" d="M170 52c0,0 0,0 -1,0 0,0 0,-1 -1,-1 0,0 0,0 0,-1 0,0 0,-1 0,-1l0 0c0,-1 0,-1 0,-1 0,-1 0,-1 0,-1 1,0 1,-1 1,-1 1,0 1,0 1,0 1,0 1,0 1,0 1,0 1,1 1,1 0,0 1,0 1,1 0,0 0,0 0,1l0 0c0,0 0,1 0,1 0,1 -1,1 -1,1 0,0 0,1 -1,1 0,0 0,0 -1,0zm0 -1c1,0 1,0 1,0 0,0 0,-1 1,-1 0,0 0,-1 0,-1l0 0c0,-1 0,-1 0,-1 -1,0 -1,-1 -1,-1 0,0 0,0 -1,0 0,0 0,0 -1,0 0,0 0,1 0,1 0,0 0,0 0,1l0 0c0,0 0,1 0,1 0,0 0,1 0,1 1,0 1,0 1,0z"/>
  <polygon id="75" class="fil2 str0" points="173,52 173,51 174,51 174,47 173,47 173,46 174,46 176,46 177,50 177,50 179,46 181,46 181,47 181,47 181,51 181,51 181,52 179,52 179,51 179,51 179,50 179,47 179,47 178,52 177,52 175,47 175,47 175,50 175,51 176,51 176,52 "/>
  <path id="76" class="fil2 str0" d="M182 52l0 -1 0 0 0 -4 0 0 0 -1 0 0 2 0c1,0 1,0 1,0 1,0 1,1 1,1 0,0 0,1 0,1 0,0 0,1 0,1 0,0 0,0 -1,1 0,0 0,0 -1,0l-1 0 0 1 1 0 0 1 -2 0zm1 -3l1 0c1,0 1,0 1,0 0,-1 0,-1 0,-1 0,0 0,-1 0,-1 0,0 0,0 -1,0l-1 0 0 2z"/>
  <path id="77" class="fil2 str0" d="M190 52c-1,0 -1,0 -2,0 0,0 0,-1 0,-1 -1,0 -1,-1 -1,-1l0 -3 0 0 0 -1 2 0 0 1 0 0 0 3c0,0 0,0 0,1 0,0 0,0 0,0 0,0 0,0 1,0 0,0 0,0 0,0 1,0 1,0 1,0 0,-1 0,-1 0,-1l0 -3 -1 0 0 -1 3 0 0 1 -1 0 0 3c0,0 0,1 0,1 0,0 -1,1 -1,1 0,0 -1,0 -1,0z"/>
  <polygon id="78" class="fil2 str0" points="194,52 194,51 195,51 195,47 194,47 194,48 193,48 193,46 198,46 198,48 197,48 197,47 196,47 196,51 197,51 197,52 "/>
  <polygon id="79" class="fil2 str0" points="199,52 199,51 199,51 199,47 199,47 199,46 201,46 201,47 200,47 200,51 201,51 201,52 "/>
  <polygon id="80" class="fil2 str0" points="201,52 201,51 202,51 202,47 201,47 201,46 202,46 203,46 206,50 206,50 206,47 205,47 205,46 207,46 207,46 207,47 207,47 207,52 206,52 203,48 203,48 203,51 204,51 204,52 "/>
  <path id="81" class="fil2 str0" d="M210 52c0,0 -1,0 -1,0 0,-1 -1,-1 -1,-1 0,-1 0,-1 0,-2l0 0c0,-1 0,-1 0,-2 0,0 1,0 1,-1 0,0 1,0 1,0 1,0 1,0 2,0 0,0 0,0 1,1l0 1 -1 0 -1 -1c0,0 0,0 0,0 0,0 0,0 -1,0 0,0 0,0 0,0 -1,0 -1,1 -1,1 0,0 0,0 0,1l0 0c0,0 0,1 0,1 0,0 0,1 1,1 0,0 0,0 1,0 0,0 0,0 0,0 0,0 0,0 0,0l0 -1 0 0 0 -1 2 0 0 2c-1,0 -1,1 -1,1 -1,0 -1,0 -2,0z"/>
  <path id="82" class="fil2 str0" d="M218 52c-1,0 -1,0 -1,0 -1,-1 -1,-1 -1,-1 -1,-1 -1,-1 -1,-2l0 0c0,-1 0,-1 1,-2 0,0 0,0 0,-1 1,0 1,0 2,0 0,0 1,0 1,0 0,0 1,0 1,1l0 1 -1 0 0 -1c0,0 0,0 0,0 0,0 -1,0 -1,0 0,0 0,0 0,0 0,0 -1,0 -1,0 0,0 0,0 0,1 -1,0 -1,0 -1,1l0 0c0,0 0,1 1,1 0,0 0,1 0,1 0,0 1,0 1,0 0,0 0,0 1,0 0,0 0,0 0,0l0 -1 1 0 0 1c0,1 -1,1 -1,1 0,0 -1,0 -1,0z"/>
  <path id="83" class="fil2 str0" d="M223 52c0,0 -1,0 -1,0 0,0 -1,-1 -1,-1 0,0 0,0 0,-1 0,0 0,-1 0,-1l0 0c0,-1 0,-1 0,-1 0,-1 0,-1 0,-1 0,0 1,-1 1,-1 0,0 1,0 1,0 1,0 1,0 1,0 1,0 1,1 1,1 0,0 0,0 1,1 0,0 0,0 0,1l0 0c0,0 0,1 0,1 -1,1 -1,1 -1,1 0,0 0,1 -1,1 0,0 0,0 -1,0zm0 -1c0,0 1,0 1,0 0,0 0,-1 0,-1 1,0 1,-1 1,-1l0 0c0,-1 0,-1 -1,-1 0,0 0,-1 0,-1 0,0 -1,0 -1,0 0,0 0,0 -1,0 0,0 0,1 0,1 0,0 0,0 0,1l0 0c0,0 0,1 0,1 0,0 0,1 0,1 1,0 1,0 1,0z"/>
  <polygon id="84" class="fil2 str0" points="226,52 226,51 227,51 227,47 226,47 226,46 227,46 228,46 231,50 231,50 231,47 230,47 230,46 232,46 232,46 232,47 232,47 232,52 231,52 228,48 228,48 228,51 229,51 229,52 "/>
  <polygon id="85" class="fil2 str0" points="233,52 233,51 233,51 233,47 233,47 233,46 237,46 237,48 236,48 236,47 234,47 234,49 236,49 236,49 234,49 234,51 235,51 235,52 "/>
  <polygon id="86" class="fil2 str0" points="238,52 238,51 238,51 238,47 238,47 238,46 242,46 242,48 241,48 241,47 239,47 239,48 241,48 241,49 239,49 239,51 241,51 241,50 242,50 242,52 "/>
  <path id="87" class="fil2 str0" d="M243 52l0 -1 0 0 0 -4 0 0 0 -1 3 0c0,0 0,0 1,0 0,0 0,1 0,1 1,0 1,0 1,1 0,0 0,0 -1,1 0,0 0,0 0,0 -1,0 -1,1 -1,1l-1 0 0 1 0 0 0 1 -2 0zm4 0l-1 -3 1 0 1 2 0 0 0 1 -1 0zm-2 -3l1 0c0,0 0,0 0,-1 1,0 1,0 1,0 0,0 0,-1 -1,-1 0,0 0,0 0,0l-1 0 0 2z"/>
  <polygon id="88" class="fil2 str0" points="248,52 248,51 249,51 249,47 248,47 248,46 253,46 253,48 252,48 252,47 250,47 250,48 252,48 252,49 250,49 250,51 252,51 252,50 253,50 253,52 "/>
  <polygon id="89" class="fil2 str0" points="254,52 254,51 254,51 254,47 254,47 254,46 254,46 255,46 258,50 258,50 258,47 257,47 257,46 259,46 260,46 260,47 259,47 259,52 258,52 255,48 255,48 255,51 256,51 256,52 "/>
  <path id="90" class="fil2 str0" d="M263 52c-1,0 -1,0 -2,0 0,-1 0,-1 -1,-1 0,-1 0,-1 0,-2l0 0c0,-1 0,-1 0,-2 1,0 1,0 1,-1 1,0 1,0 2,0 0,0 1,0 1,0 0,0 1,0 1,1l0 1 -1 0 0 -1c0,0 0,0 0,0 -1,0 -1,0 -1,0 0,0 0,0 0,0 -1,0 -1,0 -1,0 0,0 0,0 -1,1 0,0 0,0 0,1l0 0c0,0 0,1 0,1 1,0 1,1 1,1 0,0 1,0 1,0 0,0 0,0 0,0 1,0 1,0 1,0l0 -1 1 0 0 1c0,1 -1,1 -1,1 0,0 -1,0 -1,0z"/>
  <polygon id="91" class="fil2 str0" points="265,52 265,51 266,51 266,47 265,47 265,46 270,46 270,48 269,48 269,47 267,47 267,48 269,48 269,49 267,49 267,51 269,51 269,50 270,50 270,52 "/>
 </g>
</svg>
