<?xml version="1.0" encoding="UTF-8"?>
<!DOCTYPE svg PUBLIC "-//W3C//DTD SVG 1.1//EN" "http://www.w3.org/Graphics/SVG/1.1/DTD/svg11.dtd">
<!-- Creator: CorelDRAW X8 -->
<svg xmlns="http://www.w3.org/2000/svg" xml:space="preserve" width="1920px" height="384px" version="1.1" style="shape-rendering:geometricPrecision; text-rendering:geometricPrecision; image-rendering:optimizeQuality; fill-rule:evenodd; clip-rule:evenodd"
viewBox="0 0 1920 384"
 xmlns:xlink="http://www.w3.org/1999/xlink">
 <defs>
  <style type="text/css">
   <![CDATA[
    .str0 {stroke:white;stroke-width:0.384}
    .fil2 {fill:none;fill-rule:nonzero}
    .fil0 {fill:white}
    .fil1 {fill:white;fill-rule:nonzero}
   ]]>
  </style>
 </defs>
 <g id="Camada_x0020_2">
  <metadata id="CorelCorpID_0Corel-Layer"/>
  <path class="fil0" d="M1049 34c0,0 0,0 0,0 0,0 0,0 -1,1 0,0 -1,-1 -1,1 1,0 1,0 1,0 1,1 0,0 1,1 0,0 0,0 0,0 -4,62 -5,127 -7,190 0,4 1,3 -7,3 -2,0 -4,0 -6,0 -3,0 -4,-1 -6,1 0,1 0,2 0,3 0,4 0,56 0,56 0,2 0,1 1,2 0,1 1,1 1,1 1,0 2,0 3,0 76,0 145,-1 223,-1 1,-49 0,-50 0,-73 0,-2 1,-2 0,-2 -16,-5 -36,-11 -54,-16 0,-9 0,-9 0,-15 0,-1 0,-1 0,-1 0,0 0,0 0,-1 1,-1 -2,-1 -3,-1l-6 0c-1,0 0,1 -1,1l-1 0c0,0 0,0 0,0 -2,-1 -6,-4 -10,-6l0 0c-1,-1 -1,-1 -1,-1l-1 1c-4,2 -4,2 -8,4 0,1 1,1 -2,1 0,1 0,0 -2,0 -1,0 -2,0 -3,0l0 3 0 0 0 0 -8 0 0 0 -14 0c0,0 0,0 0,0 -1,0 -1,0 -1,0 -1,0 -14,-8 -14,-8 -1,-1 -1,-1 -2,-1l-2 0c-1,0 0,0 -1,1 -1,0 -19,11 -20,11l-1 1c0,4 0,6 0,12 -9,2 -11,4 -15,4 -1,1 -3,1 -5,2 -1,0 -4,1 -4,-1l0 -6c-6,-151 -1,-17 -6,-161 0,-1 0,-1 0,-2 0,0 0,-1 0,-1 0,0 1,0 1,0l1 -1c0,-1 -1,-2 -2,-2 0,-1 0,0 0,-1 -1,-9 -1,-11 -1,-11 0,0 0,0 0,0 -8,0 -13,-1 -15,0 0,0 0,1 0,2l0 5c-1,1 -1,4 -1,5z"/>
  <path class="fil1" d="M118 291c-21,0 -40,-5 -56,-14 -15,-9 -28,-21 -36,-38 -9,-16 -13,-35 -13,-58l0 -7c0,-21 4,-40 12,-57 9,-16 21,-29 36,-38 15,-10 34,-14 55,-14 15,0 29,2 42,6 13,4 24,11 35,19l0 53 -33 0 -5 -33c-3,-2 -7,-4 -11,-6 -3,-2 -8,-3 -12,-4 -5,-1 -10,-1 -15,-1 -13,0 -23,3 -32,9 -9,6 -16,15 -21,26 -5,11 -7,24 -7,40l0 7c0,16 3,29 8,40 5,12 12,20 21,27 9,6 20,9 33,9 6,0 13,-1 19,-2 6,-2 12,-4 17,-6l5 -31 33 0 0 53c-9,5 -20,10 -32,14 -13,4 -27,6 -43,6z"/>
  <path id="1" class="fil1" d="M201 288l0 -27 16 -2 70 -191 45 0 69 191 16 2 0 27 -75 0 0 -27 16 -3 -10 -30 -77 0 -10 30 15 3 0 27 -75 0zm80 -92l56 0 -25 -75 -2 -7 -1 0 -2 7 -26 75z"/>
  <path id="2" class="fil1" d="M423 288l0 -27 23 -4 0 -158 -23 -5 0 -26 104 0c17,0 31,3 43,8 12,5 21,12 28,22 6,10 10,22 10,35 0,13 -4,25 -10,35 -6,10 -15,18 -27,24 -11,6 -24,9 -39,9l-42 0 0 56 24 4 0 27 -91 0zm141 0l-37 -95 40 -10 32 74 18 4 0 27 -53 0zm-74 -121l36 0c13,0 22,-3 28,-8 7,-6 10,-13 10,-24 0,-10 -3,-18 -10,-24 -6,-6 -15,-9 -27,-9l-37 0 0 65z"/>
  <polygon id="3" class="fil1" points="626,288 626,261 649,257 649,99 626,94 626,68 649,68 693,68 720,68 720,94 693,99 693,254 755,254 757,222 791,222 791,288 "/>
  <path id="4" class="fil1" d="M796 288l0 -27 15 -2 70 -191 45 0 70 191 15 2 0 27 -75 0 0 -27 16 -3 -10 -30 -77 0 -10 30 15 3 0 27 -74 0zm79 -92l57 0 -26 -75 -2 -7 -1 0 -2 7 -26 75z"/>
  <path class="fil1" d="M1265 287l0 -29 72 -77c7,-8 13,-15 17,-21 4,-6 7,-11 9,-16 1,-5 2,-10 2,-15 0,-9 -2,-16 -7,-22 -5,-6 -12,-9 -22,-9 -10,0 -18,4 -23,10 -5,7 -8,16 -8,27l-42 0 -1 -1c0,-13 3,-25 9,-35 6,-11 14,-19 26,-26 11,-6 24,-9 40,-9 15,0 28,3 39,8 10,5 19,13 25,23 5,9 8,20 8,33 0,9 -1,17 -4,25 -3,7 -8,16 -15,24 -7,9 -15,18 -26,29l-42 46 0 1 57 0 2 -21 34 0 0 55 -150 0z"/>
  <path id="1" class="fil1" d="M1505 290c-23,0 -41,-8 -54,-23 -14,-15 -20,-37 -20,-66l0 -48c0,-29 6,-51 20,-66 13,-15 31,-23 54,-23 23,0 41,8 54,23 14,15 20,37 20,66l0 48c0,29 -6,51 -20,66 -13,15 -31,23 -54,23zm0 -34c10,0 18,-4 23,-12 5,-8 7,-21 7,-39l0 -57c0,-17 -2,-30 -7,-38 -6,-8 -13,-12 -23,-12 -10,0 -18,4 -23,12 -5,8 -7,21 -7,38l0 57c0,18 2,31 7,39 6,8 13,12 23,12z"/>
  <path id="2" class="fil1" d="M1595 287l0 -29 71 -77c7,-8 13,-15 17,-21 4,-6 7,-11 9,-16 2,-5 3,-10 3,-15 0,-9 -3,-16 -8,-22 -4,-6 -12,-9 -21,-9 -10,0 -18,4 -23,10 -5,7 -8,16 -8,27l-43 0 0 -1c0,-13 2,-25 8,-35 6,-11 15,-19 26,-26 12,-6 25,-9 40,-9 15,0 28,3 39,8 11,5 19,13 25,23 6,9 9,20 9,33 0,9 -2,17 -5,25 -3,7 -8,16 -14,24 -7,9 -16,18 -26,29l-43 46 1 1 56 0 3 -21 34 0 0 55 -150 0z"/>
  <path id="3" class="fil1" d="M1757 287l0 -29 71 -77c8,-8 13,-15 17,-21 5,-6 8,-11 9,-16 2,-5 3,-10 3,-15 0,-9 -2,-16 -7,-22 -5,-6 -12,-9 -22,-9 -10,0 -18,4 -23,10 -5,7 -8,16 -8,27l-43 0 0 -1c0,-13 3,-25 9,-35 6,-11 14,-19 26,-26 11,-6 24,-9 40,-9 15,0 28,3 38,8 11,5 20,13 25,23 6,9 9,20 9,33 0,9 -1,17 -4,25 -4,7 -9,16 -15,24 -7,9 -15,18 -26,29l-42 46 0 1 57 0 2 -21 34 0 0 55 -150 0z"/>
  <polygon class="fil1" points="43,362 43,357 48,356 48,327 43,326 43,321 48,321 56,321 61,321 61,326 56,327 56,356 67,356 68,350 74,350 74,362 "/>
  <path id="1" class="fil1" d="M76 362l0 -5 3 0 13 -36 8 0 13 36 3 0 0 5 -14 0 0 -5 3 0 -2 -6 -14 0 -2 6 3 0 0 5 -14 0zm15 -17l10 0 -4 -14 -1 -1 0 0 0 1 -5 14z"/>
  <polygon id="2" class="fil1" points="124,362 124,357 128,356 128,328 121,328 120,333 114,333 114,321 150,321 150,333 144,333 144,328 136,328 136,356 141,357 141,362 "/>
  <polygon id="3" class="fil1" points="153,362 153,357 157,356 157,327 153,326 153,321 170,321 170,326 165,327 165,356 170,357 170,362 "/>
  <polygon id="4" class="fil1" points="173,362 173,357 177,356 177,327 173,326 173,321 177,321 185,321 203,349 203,349 203,327 198,326 198,321 210,321 215,321 215,326 210,327 210,362 203,362 185,334 184,334 184,356 190,357 190,362 "/>
  <path id="5" class="fil1" d="M231 362l0 -5 3 0 13 -36 8 0 13 36 3 0 0 5 -14 0 0 -5 3 0 -2 -6 -14 0 -2 6 3 0 0 5 -14 0zm15 -17l10 0 -5 -14 0 -1 0 0 -1 1 -4 14z"/>
  <polygon id="6" class="fil1" points="273,362 273,357 278,356 278,327 273,326 273,321 278,321 290,321 301,350 301,350 312,321 328,321 328,326 324,327 324,356 328,357 328,362 311,362 311,357 316,356 316,348 316,330 316,330 304,361 297,361 285,330 285,330 285,348 285,356 290,357 290,362 "/>
  <polygon id="7" class="fil1" points="331,362 331,357 335,356 335,327 331,326 331,321 362,321 362,332 356,332 356,328 343,328 343,338 357,338 357,344 343,344 343,356 356,356 357,351 363,351 363,362 "/>
  <path id="8" class="fil1" d="M367 362l0 -5 4 -1 0 -29 -4 -1 0 -5 19 0c3,0 6,1 8,2 3,1 4,2 5,4 2,2 2,4 2,6 0,3 0,5 -2,7 -1,2 -2,3 -5,4 -2,1 -4,2 -7,2l-7 0 0 10 4 1 0 5 -17 0zm26 0l-7 -18 8 -1 6 13 3 1 0 5 -10 0zm-13 -22l6 0c2,0 4,-1 5,-2 2,-1 2,-2 2,-4 0,-2 0,-4 -2,-5 -1,-1 -2,-1 -5,-1l-6 0 0 12z"/>
  <polygon id="9" class="fil1" points="406,362 406,357 411,356 411,327 406,326 406,321 423,321 423,326 419,327 419,356 423,357 423,362 "/>
  <path id="10" class="fil1" d="M445 362c-4,0 -7,0 -10,-2 -3,-2 -5,-4 -7,-7 -1,-3 -2,-7 -2,-11l0 -1c0,-4 1,-7 2,-10 2,-3 4,-6 7,-8 3,-1 6,-2 10,-2 3,0 5,0 8,1 2,1 4,2 6,4l0 9 -6 0 -1 -6c0,0 -1,-1 -2,-1 -1,0 -1,0 -2,-1 -1,0 -2,0 -3,0 -2,0 -4,1 -6,2 -1,1 -3,3 -4,5 0,2 -1,4 -1,7l0 1c0,3 1,6 1,8 1,2 3,3 4,5 2,1 4,1 6,1 2,0 3,0 4,0 1,0 2,-1 3,-1l1 -6 6 0 0 10c-2,1 -3,2 -6,2 -2,1 -5,1 -8,1z"/>
  <path id="11" class="fil1" d="M462 362l0 -5 3 0 13 -36 8 0 13 36 3 0 0 5 -14 0 0 -5 3 0 -2 -6 -14 0 -2 6 3 0 0 5 -14 0zm15 -17l10 0 -4 -14 -1 -1 0 0 0 1 -5 14z"/>
  <polygon id="12" class="fil1" points="519,362 519,357 523,356 523,327 519,326 519,321 535,321 535,326 531,327 531,339 548,339 548,327 543,326 543,321 548,321 556,321 560,321 560,326 556,327 556,356 560,357 560,362 543,362 543,357 548,356 548,345 531,345 531,356 535,357 535,362 "/>
  <polygon id="13" class="fil1" points="563,362 563,357 567,356 567,327 563,326 563,321 580,321 580,326 576,327 576,356 580,357 580,362 "/>
  <path id="14" class="fil1" d="M602 362c-4,0 -8,0 -10,-2 -3,-2 -5,-4 -7,-7 -1,-3 -2,-6 -2,-10l0 -2c0,-4 1,-7 2,-10 2,-3 4,-6 6,-8 3,-1 6,-2 10,-2 3,0 6,0 8,1 3,1 5,2 7,4l0 9 -6 0 -1 -6c-1,0 -2,-1 -3,-1 -1,-1 -3,-1 -4,-1 -2,0 -4,1 -6,2 -2,1 -3,3 -4,5 -1,2 -1,4 -1,7l0 2c0,2 0,5 1,7 1,2 2,3 4,5 2,1 4,1 6,1 2,0 3,0 4,0 1,0 2,-1 3,-1l0 -7 -6 0 0 -6 14 0 0 16c-2,1 -4,3 -6,3 -3,1 -6,1 -9,1z"/>
  <polygon id="15" class="fil1" points="621,362 621,357 625,356 625,327 621,326 621,321 638,321 638,326 634,327 634,339 650,339 650,327 646,326 646,321 650,321 658,321 663,321 663,326 658,327 658,356 663,357 663,362 646,362 646,357 650,356 650,345 634,345 634,356 638,357 638,362 "/>
  <path id="16" class="fil1" d="M680 362l0 -5 4 -1 0 -29 -4 -1 0 -5 4 0 15 0c3,0 6,1 8,2 2,1 4,3 5,5 1,2 2,4 2,6 0,3 -1,5 -2,7 -1,2 -3,4 -5,5 -2,1 -5,1 -8,1l-7 0 0 9 4 1 0 5 -16 0zm12 -21l7 0c2,0 4,-1 5,-2 1,-1 2,-3 2,-5 0,-2 -1,-3 -2,-4 -1,-2 -3,-2 -5,-2l-7 0 0 13z"/>
  <polygon id="17" class="fil1" points="716,362 716,357 721,356 721,327 716,326 716,321 748,321 748,332 742,332 741,328 729,328 729,338 743,338 743,344 729,344 729,356 742,356 742,351 748,351 748,362 "/>
  <path id="18" class="fil1" d="M753 362l0 -5 4 -1 0 -29 -4 -1 0 -5 19 0c3,0 6,1 8,2 2,1 4,2 5,4 1,2 2,4 2,6 0,3 -1,5 -2,7 -1,2 -3,3 -5,4 -2,1 -4,2 -7,2l-8 0 0 10 4 1 0 5 -16 0zm26 0l-7 -18 7 -1 6 13 4 1 0 5 -10 0zm-14 -22l7 0c2,0 4,-1 5,-2 1,-1 2,-2 2,-4 0,-2 -1,-4 -2,-5 -1,-1 -3,-1 -5,-1l-7 0 0 12z"/>
  <polygon id="19" class="fil1" points="792,362 792,357 796,356 796,327 792,326 792,321 824,321 824,333 818,333 817,328 804,328 804,339 818,339 818,345 804,345 804,356 809,357 809,362 "/>
  <path id="20" class="fil1" d="M844 362c-2,0 -5,0 -7,-1 -2,-1 -4,-3 -6,-4 -1,-2 -3,-4 -4,-7 0,-2 -1,-5 -1,-8l0 -1c0,-3 1,-5 1,-8 1,-2 3,-4 4,-6 2,-2 4,-4 6,-5 2,-1 5,-1 7,-1 3,0 6,0 8,1 2,1 4,3 6,5 1,2 3,4 3,6 1,3 2,5 2,8l0 1c0,3 -1,6 -2,8 0,3 -2,5 -3,7 -2,1 -4,3 -6,4 -2,1 -5,1 -8,1zm0 -6c3,0 5,0 6,-2 2,-1 3,-2 4,-5 0,-2 1,-4 1,-7l0 -1c0,-3 -1,-5 -1,-7 -1,-2 -2,-4 -4,-5 -1,-1 -3,-2 -6,-2 -2,0 -4,1 -5,2 -2,1 -3,3 -4,5 0,2 -1,4 -1,7l0 1c0,3 1,5 1,7 1,3 2,4 4,5 1,2 3,2 5,2z"/>
  <path id="21" class="fil1" d="M866 362l0 -5 4 -1 0 -29 -4 -1 0 -5 19 0c3,0 6,1 8,2 2,1 4,2 5,4 2,2 2,4 2,6 0,3 0,5 -2,7 -1,2 -2,3 -5,4 -2,1 -4,2 -7,2l-8 0 0 10 5 1 0 5 -17 0zm26 0l-7 -18 8 -1 5 13 4 1 0 5 -10 0zm-14 -22l7 0c2,0 4,-1 5,-2 1,-1 2,-2 2,-4 0,-2 -1,-4 -2,-5 -1,-1 -3,-1 -5,-1l-7 0 0 12z"/>
  <polygon id="22" class="fil1" points="905,362 905,357 909,356 909,327 905,326 905,321 909,321 921,321 932,350 933,350 943,321 960,321 960,326 955,327 955,356 960,357 960,362 943,362 943,357 947,356 947,348 948,330 947,330 935,361 929,361 917,330 917,330 917,348 917,356 922,357 922,362 "/>
  <path id="23" class="fil1" d="M959 362l0 -5 3 0 13 -36 9 0 12 36 3 0 0 5 -14 0 0 -5 3 0 -2 -6 -14 0 -2 6 3 0 0 5 -14 0zm15 -17l11 0 -5 -14 -1 -1 0 0 0 1 -5 14z"/>
  <polygon id="24" class="fil1" points="1002,362 1002,357 1006,356 1006,327 1002,326 1002,321 1006,321 1014,321 1032,349 1032,349 1032,327 1027,326 1027,321 1039,321 1044,321 1044,326 1039,327 1039,362 1032,362 1014,334 1013,334 1013,356 1019,357 1019,362 "/>
  <path id="25" class="fil1" d="M1066 362c-4,0 -8,0 -11,-2 -2,-2 -5,-4 -6,-7 -2,-3 -3,-7 -3,-11l0 -1c0,-4 1,-7 3,-10 1,-3 3,-6 6,-8 3,-1 6,-2 10,-2 3,0 6,0 8,1 2,1 5,2 6,4l0 9 -6 0 0 -6c-1,0 -2,-1 -2,-1 -1,0 -2,0 -3,-1 -1,0 -2,0 -3,0 -2,0 -4,1 -5,2 -2,1 -3,3 -4,5 -1,2 -2,4 -2,7l0 1c0,3 1,6 2,8 1,2 2,3 4,5 1,1 4,1 6,1 1,0 2,0 3,0 2,0 3,-1 4,-1l0 -6 6 0 0 10c-1,1 -3,2 -5,2 -3,1 -5,1 -8,1z"/>
  <polygon id="26" class="fil1" points="1083,362 1083,357 1087,356 1087,327 1083,326 1083,321 1115,321 1115,332 1108,332 1108,328 1096,328 1096,338 1109,338 1109,344 1096,344 1096,356 1109,356 1109,351 1115,351 1115,362 "/>
  <path id="27" class="fil1" d="M1153 362c-4,0 -8,0 -11,-2 -2,-2 -5,-4 -6,-7 -2,-3 -3,-7 -3,-11l0 -1c0,-4 1,-7 3,-10 1,-3 3,-6 6,-8 3,-1 6,-2 10,-2 3,0 6,0 8,1 2,1 5,2 6,4l0 9 -6 0 0 -6c-1,0 -2,-1 -2,-1 -1,0 -2,0 -3,-1 -1,0 -2,0 -3,0 -2,0 -4,1 -5,2 -2,1 -3,3 -4,5 -1,2 -2,4 -2,7l0 1c0,3 1,6 2,8 1,2 2,3 4,5 1,1 3,1 6,1 1,0 2,0 3,0 2,0 3,-1 4,-1l0 -6 6 0 0 10c-1,1 -3,2 -5,2 -3,1 -5,1 -8,1z"/>
  <path id="28" class="fil1" d="M1189 362c-3,0 -6,0 -8,-1 -2,-1 -4,-3 -6,-4 -1,-2 -2,-4 -3,-7 -1,-2 -2,-5 -2,-8l0 -1c0,-3 1,-5 2,-8 1,-2 2,-4 3,-6 2,-2 4,-4 6,-5 2,-1 5,-1 8,-1 2,0 5,0 7,1 2,1 4,3 6,5 2,2 3,4 4,6 1,3 1,5 1,8l0 1c0,3 0,6 -1,8 -1,3 -2,5 -4,7 -2,1 -4,3 -6,4 -2,1 -5,1 -7,1zm0 -6c2,0 4,0 5,-2 2,-1 3,-2 4,-5 1,-2 1,-4 1,-7l0 -1c0,-3 0,-5 -1,-7 -1,-2 -2,-4 -4,-5 -1,-1 -3,-2 -5,-2 -3,0 -5,1 -6,2 -2,1 -3,3 -3,5 -1,2 -2,4 -2,7l0 1c0,3 1,5 2,7 0,3 1,4 3,5 2,2 3,2 6,2z"/>
  <polygon id="29" class="fil1" points="1210,362 1210,357 1215,356 1215,327 1210,326 1210,321 1215,321 1227,321 1238,350 1238,350 1248,321 1265,321 1265,326 1260,327 1260,356 1265,357 1265,362 1248,362 1248,357 1253,356 1253,348 1253,330 1253,330 1240,361 1234,361 1222,330 1222,330 1222,348 1222,356 1227,357 1227,362 "/>
  <path id="30" class="fil1" d="M1268 362l0 -5 4 -1 0 -29 -4 -1 0 -5 4 0 15 0c3,0 6,1 8,2 2,1 4,3 5,5 1,2 2,4 2,6 0,3 -1,5 -2,7 -1,2 -3,4 -5,5 -2,1 -5,1 -8,1l-7 0 0 9 4 1 0 5 -16 0zm12 -21l7 0c2,0 4,-1 5,-2 1,-1 2,-3 2,-5 0,-2 -1,-3 -2,-4 -1,-2 -3,-2 -5,-2l-7 0 0 13z"/>
  <path id="31" class="fil1" d="M1325 362c-4,0 -7,0 -9,-1 -2,-1 -4,-3 -6,-5 -1,-2 -2,-5 -2,-8l0 -21 -4 -1 0 -5 17 0 0 5 -5 1 0 21c0,2 1,4 1,5 1,1 2,2 3,2 1,1 3,1 5,1 1,0 3,0 4,-1 1,0 2,-1 3,-2 0,-1 1,-3 1,-5l0 -21 -5 -1 0 -5 17 0 0 5 -4 1 0 21c0,3 -1,6 -2,8 -2,2 -4,4 -6,5 -2,1 -5,1 -8,1z"/>
  <polygon id="32" class="fil1" points="1357,362 1357,357 1361,356 1361,328 1354,328 1354,333 1347,333 1347,321 1383,321 1383,333 1377,333 1377,328 1369,328 1369,356 1374,357 1374,362 "/>
  <polygon id="33" class="fil1" points="1386,362 1386,357 1391,356 1391,327 1386,326 1386,321 1403,321 1403,326 1399,327 1399,356 1403,357 1403,362 "/>
  <polygon id="34" class="fil1" points="1406,362 1406,357 1410,356 1410,327 1406,326 1406,321 1410,321 1419,321 1436,349 1436,349 1436,327 1431,326 1431,321 1444,321 1448,321 1448,326 1444,327 1444,362 1436,362 1418,334 1418,334 1418,356 1423,357 1423,362 "/>
  <path id="35" class="fil1" d="M1469 362c-4,0 -7,0 -10,-2 -3,-2 -5,-4 -6,-7 -2,-3 -3,-6 -3,-10l0 -2c0,-4 1,-7 3,-10 1,-3 3,-6 6,-8 3,-1 6,-2 10,-2 3,0 5,0 8,1 3,1 5,2 7,4l0 9 -6 0 -1 -6c-1,0 -2,-1 -3,-1 -2,-1 -3,-1 -5,-1 -2,0 -4,1 -5,2 -2,1 -3,3 -4,5 -1,2 -1,4 -1,7l0 2c0,2 0,5 1,7 1,2 2,3 4,5 1,1 3,1 6,1 1,0 2,0 4,0 1,0 2,-1 3,-1l0 -7 -6 0 0 -6 14 0 0 16c-2,1 -4,3 -7,3 -2,1 -5,1 -9,1z"/>
  <path id="36" class="fil1" d="M1522 362c-4,0 -7,0 -10,-2 -3,-2 -5,-4 -7,-7 -2,-3 -2,-7 -2,-11l0 -1c0,-4 0,-7 2,-10 1,-3 4,-6 7,-8 2,-1 6,-2 10,-2 2,0 5,0 7,1 3,1 5,2 7,4l0 9 -6 0 -1 -6c-1,0 -1,-1 -2,-1 -1,0 -2,0 -2,-1 -1,0 -2,0 -3,0 -2,0 -4,1 -6,2 -2,1 -3,3 -4,5 -1,2 -1,4 -1,7l0 1c0,3 0,6 1,8 1,2 2,3 4,5 2,1 4,1 6,1 1,0 3,0 4,0 1,0 2,-1 3,-1l1 -6 6 0 0 10c-2,1 -4,2 -6,2 -2,1 -5,1 -8,1z"/>
  <path id="37" class="fil1" d="M1558 362c-3,0 -5,0 -7,-1 -3,-1 -5,-3 -6,-4 -2,-2 -3,-4 -4,-7 -1,-2 -1,-5 -1,-8l0 -1c0,-3 0,-5 1,-8 1,-2 2,-4 4,-6 1,-2 3,-4 6,-5 2,-1 4,-1 7,-1 3,0 5,0 7,1 3,1 5,3 6,5 2,2 3,4 4,6 1,3 1,5 1,8l0 1c0,3 0,6 -1,8 -1,3 -2,5 -4,7 -1,1 -3,3 -6,4 -2,1 -4,1 -7,1zm0 -6c2,0 4,0 6,-2 1,-1 2,-2 3,-5 1,-2 1,-4 1,-7l0 -1c0,-3 0,-5 -1,-7 -1,-2 -2,-4 -3,-5 -2,-1 -4,-2 -6,-2 -2,0 -4,1 -6,2 -1,1 -2,3 -3,5 -1,2 -1,4 -1,7l0 1c0,3 0,5 1,7 1,3 2,4 3,5 2,2 4,2 6,2z"/>
  <polygon id="38" class="fil1" points="1580,362 1580,357 1584,356 1584,327 1580,326 1580,321 1584,321 1592,321 1610,349 1610,349 1610,327 1605,326 1605,321 1617,321 1622,321 1622,326 1617,327 1617,362 1609,362 1591,334 1591,334 1591,356 1596,357 1596,362 "/>
  <polygon id="39" class="fil1" points="1624,362 1624,357 1629,356 1629,327 1624,326 1624,321 1656,321 1656,333 1650,333 1650,328 1637,328 1637,339 1651,339 1651,345 1637,345 1637,356 1641,357 1641,362 "/>
  <polygon id="40" class="fil1" points="1659,362 1659,357 1664,356 1664,327 1659,326 1659,321 1691,321 1691,332 1685,332 1684,328 1672,328 1672,338 1685,338 1685,344 1672,344 1672,356 1685,356 1685,351 1691,351 1691,362 "/>
  <path id="41" class="fil1" d="M1696 362l0 -5 4 -1 0 -29 -4 -1 0 -5 19 0c3,0 6,1 8,2 2,1 4,2 5,4 1,2 2,4 2,6 0,3 -1,5 -2,7 -1,2 -3,3 -5,4 -2,1 -4,2 -7,2l-8 0 0 10 4 1 0 5 -16 0zm26 0l-7 -18 7 -1 6 13 4 1 0 5 -10 0zm-14 -22l7 0c2,0 4,-1 5,-2 1,-1 2,-2 2,-4 0,-2 -1,-4 -2,-5 -1,-1 -3,-1 -5,-1l-7 0 0 12z"/>
  <polygon id="42" class="fil1" points="1735,362 1735,357 1739,356 1739,327 1735,326 1735,321 1766,321 1766,332 1760,332 1760,328 1747,328 1747,338 1761,338 1761,344 1747,344 1747,356 1760,356 1761,351 1767,351 1767,362 "/>
  <polygon id="43" class="fil1" points="1771,362 1771,357 1775,356 1775,327 1771,326 1771,321 1775,321 1784,321 1801,349 1801,349 1801,327 1796,326 1796,321 1809,321 1813,321 1813,326 1809,327 1809,362 1801,362 1783,334 1783,334 1783,356 1788,357 1788,362 "/>
  <path id="44" class="fil1" d="M1835 362c-4,0 -7,0 -10,-2 -3,-2 -5,-4 -7,-7 -2,-3 -2,-7 -2,-11l0 -1c0,-4 0,-7 2,-10 1,-3 4,-6 6,-8 3,-1 7,-2 11,-2 2,0 5,0 7,1 3,1 5,2 7,4l0 9 -6 0 -1 -6c-1,0 -1,-1 -2,-1 -1,0 -2,0 -3,-1 0,0 -1,0 -2,0 -3,0 -5,1 -6,2 -2,1 -3,3 -4,5 -1,2 -1,4 -1,7l0 1c0,3 0,6 1,8 1,2 2,3 4,5 2,1 4,1 6,1 1,0 2,0 4,0 1,0 2,-1 3,-1l1 -6 6 0 0 10c-2,1 -4,2 -6,2 -3,1 -5,1 -8,1z"/>
  <polygon id="45" class="fil1" points="1852,362 1852,357 1857,356 1857,327 1852,326 1852,321 1884,321 1884,332 1878,332 1877,328 1865,328 1865,338 1879,338 1879,344 1865,344 1865,356 1878,356 1878,351 1884,351 1884,362 "/>
  <polygon id="46" class="fil2 str0" points="43,362 43,357 48,356 48,327 43,326 43,321 48,321 56,321 61,321 61,326 56,327 56,356 67,356 68,350 74,350 74,362 "/>
  <path id="47" class="fil2 str0" d="M76 362l0 -5 3 0 13 -36 8 0 13 36 3 0 0 5 -14 0 0 -5 3 0 -2 -6 -14 0 -2 6 3 0 0 5 -14 0zm15 -17l10 0 -4 -14 -1 -1 0 0 0 1 -5 14z"/>
  <polygon id="48" class="fil2 str0" points="124,362 124,357 128,356 128,328 121,328 120,333 114,333 114,321 150,321 150,333 144,333 144,328 136,328 136,356 141,357 141,362 "/>
  <polygon id="49" class="fil2 str0" points="153,362 153,357 157,356 157,327 153,326 153,321 170,321 170,326 165,327 165,356 170,357 170,362 "/>
  <polygon id="50" class="fil2 str0" points="173,362 173,357 177,356 177,327 173,326 173,321 177,321 185,321 203,349 203,349 203,327 198,326 198,321 210,321 215,321 215,326 210,327 210,362 203,362 185,334 184,334 184,356 190,357 190,362 "/>
  <path id="51" class="fil2 str0" d="M231 362l0 -5 3 0 13 -36 8 0 13 36 3 0 0 5 -14 0 0 -5 3 0 -2 -6 -14 0 -2 6 3 0 0 5 -14 0zm15 -17l10 0 -5 -14 0 -1 0 0 -1 1 -4 14z"/>
  <polygon id="52" class="fil2 str0" points="273,362 273,357 278,356 278,327 273,326 273,321 278,321 290,321 301,350 301,350 312,321 328,321 328,326 324,327 324,356 328,357 328,362 311,362 311,357 316,356 316,348 316,330 316,330 304,361 297,361 285,330 285,330 285,348 285,356 290,357 290,362 "/>
  <polygon id="53" class="fil2 str0" points="331,362 331,357 335,356 335,327 331,326 331,321 362,321 362,332 356,332 356,328 343,328 343,338 357,338 357,344 343,344 343,356 356,356 357,351 363,351 363,362 "/>
  <path id="54" class="fil2 str0" d="M367 362l0 -5 4 -1 0 -29 -4 -1 0 -5 19 0c3,0 6,1 8,2 3,1 4,2 5,4 2,2 2,4 2,6 0,3 0,5 -2,7 -1,2 -2,3 -5,4 -2,1 -4,2 -7,2l-7 0 0 10 4 1 0 5 -17 0zm26 0l-7 -18 8 -1 6 13 3 1 0 5 -10 0zm-13 -22l6 0c2,0 4,-1 5,-2 2,-1 2,-2 2,-4 0,-2 0,-4 -2,-5 -1,-1 -2,-1 -5,-1l-6 0 0 12z"/>
  <polygon id="55" class="fil2 str0" points="406,362 406,357 411,356 411,327 406,326 406,321 423,321 423,326 419,327 419,356 423,357 423,362 "/>
  <path id="56" class="fil2 str0" d="M445 362c-4,0 -7,0 -10,-2 -3,-2 -5,-4 -7,-7 -1,-3 -2,-7 -2,-11l0 -1c0,-4 1,-7 2,-10 2,-3 4,-6 7,-8 3,-1 6,-2 10,-2 3,0 5,0 8,1 2,1 4,2 6,4l0 9 -6 0 -1 -6c0,0 -1,-1 -2,-1 -1,0 -1,0 -2,-1 -1,0 -2,0 -3,0 -2,0 -4,1 -6,2 -1,1 -3,3 -4,5 0,2 -1,4 -1,7l0 1c0,3 1,6 1,8 1,2 3,3 4,5 2,1 4,1 6,1 2,0 3,0 4,0 1,0 2,-1 3,-1l1 -6 6 0 0 10c-2,1 -3,2 -6,2 -2,1 -5,1 -8,1z"/>
  <path id="57" class="fil2 str0" d="M462 362l0 -5 3 0 13 -36 8 0 13 36 3 0 0 5 -14 0 0 -5 3 0 -2 -6 -14 0 -2 6 3 0 0 5 -14 0zm15 -17l10 0 -4 -14 -1 -1 0 0 0 1 -5 14z"/>
  <polygon id="58" class="fil2 str0" points="519,362 519,357 523,356 523,327 519,326 519,321 535,321 535,326 531,327 531,339 548,339 548,327 543,326 543,321 548,321 556,321 560,321 560,326 556,327 556,356 560,357 560,362 543,362 543,357 548,356 548,345 531,345 531,356 535,357 535,362 "/>
  <polygon id="59" class="fil2 str0" points="563,362 563,357 567,356 567,327 563,326 563,321 580,321 580,326 576,327 576,356 580,357 580,362 "/>
  <path id="60" class="fil2 str0" d="M602 362c-4,0 -8,0 -10,-2 -3,-2 -5,-4 -7,-7 -1,-3 -2,-6 -2,-10l0 -2c0,-4 1,-7 2,-10 2,-3 4,-6 6,-8 3,-1 6,-2 10,-2 3,0 6,0 8,1 3,1 5,2 7,4l0 9 -6 0 -1 -6c-1,0 -2,-1 -3,-1 -1,-1 -3,-1 -4,-1 -2,0 -4,1 -6,2 -2,1 -3,3 -4,5 -1,2 -1,4 -1,7l0 2c0,2 0,5 1,7 1,2 2,3 4,5 2,1 4,1 6,1 2,0 3,0 4,0 1,0 2,-1 3,-1l0 -7 -6 0 0 -6 14 0 0 16c-2,1 -4,3 -6,3 -3,1 -6,1 -9,1z"/>
  <polygon id="61" class="fil2 str0" points="621,362 621,357 625,356 625,327 621,326 621,321 638,321 638,326 634,327 634,339 650,339 650,327 646,326 646,321 650,321 658,321 663,321 663,326 658,327 658,356 663,357 663,362 646,362 646,357 650,356 650,345 634,345 634,356 638,357 638,362 "/>
  <path id="62" class="fil2 str0" d="M680 362l0 -5 4 -1 0 -29 -4 -1 0 -5 4 0 15 0c3,0 6,1 8,2 2,1 4,3 5,5 1,2 2,4 2,6 0,3 -1,5 -2,7 -1,2 -3,4 -5,5 -2,1 -5,1 -8,1l-7 0 0 9 4 1 0 5 -16 0zm12 -21l7 0c2,0 4,-1 5,-2 1,-1 2,-3 2,-5 0,-2 -1,-3 -2,-4 -1,-2 -3,-2 -5,-2l-7 0 0 13z"/>
  <polygon id="63" class="fil2 str0" points="716,362 716,357 721,356 721,327 716,326 716,321 748,321 748,332 742,332 741,328 729,328 729,338 743,338 743,344 729,344 729,356 742,356 742,351 748,351 748,362 "/>
  <path id="64" class="fil2 str0" d="M753 362l0 -5 4 -1 0 -29 -4 -1 0 -5 19 0c3,0 6,1 8,2 2,1 4,2 5,4 1,2 2,4 2,6 0,3 -1,5 -2,7 -1,2 -3,3 -5,4 -2,1 -4,2 -7,2l-8 0 0 10 4 1 0 5 -16 0zm26 0l-7 -18 7 -1 6 13 4 1 0 5 -10 0zm-14 -22l7 0c2,0 4,-1 5,-2 1,-1 2,-2 2,-4 0,-2 -1,-4 -2,-5 -1,-1 -3,-1 -5,-1l-7 0 0 12z"/>
  <polygon id="65" class="fil2 str0" points="792,362 792,357 796,356 796,327 792,326 792,321 824,321 824,333 818,333 817,328 804,328 804,339 818,339 818,345 804,345 804,356 809,357 809,362 "/>
  <path id="66" class="fil2 str0" d="M844 362c-2,0 -5,0 -7,-1 -2,-1 -4,-3 -6,-4 -1,-2 -3,-4 -4,-7 0,-2 -1,-5 -1,-8l0 -1c0,-3 1,-5 1,-8 1,-2 3,-4 4,-6 2,-2 4,-4 6,-5 2,-1 5,-1 7,-1 3,0 6,0 8,1 2,1 4,3 6,5 1,2 3,4 3,6 1,3 2,5 2,8l0 1c0,3 -1,6 -2,8 0,3 -2,5 -3,7 -2,1 -4,3 -6,4 -2,1 -5,1 -8,1zm0 -6c3,0 5,0 6,-2 2,-1 3,-2 4,-5 0,-2 1,-4 1,-7l0 -1c0,-3 -1,-5 -1,-7 -1,-2 -2,-4 -4,-5 -1,-1 -3,-2 -6,-2 -2,0 -4,1 -5,2 -2,1 -3,3 -4,5 0,2 -1,4 -1,7l0 1c0,3 1,5 1,7 1,3 2,4 4,5 1,2 3,2 5,2z"/>
  <path id="67" class="fil2 str0" d="M866 362l0 -5 4 -1 0 -29 -4 -1 0 -5 19 0c3,0 6,1 8,2 2,1 4,2 5,4 2,2 2,4 2,6 0,3 0,5 -2,7 -1,2 -2,3 -5,4 -2,1 -4,2 -7,2l-8 0 0 10 5 1 0 5 -17 0zm26 0l-7 -18 8 -1 5 13 4 1 0 5 -10 0zm-14 -22l7 0c2,0 4,-1 5,-2 1,-1 2,-2 2,-4 0,-2 -1,-4 -2,-5 -1,-1 -3,-1 -5,-1l-7 0 0 12z"/>
  <polygon id="68" class="fil2 str0" points="905,362 905,357 909,356 909,327 905,326 905,321 909,321 921,321 932,350 933,350 943,321 960,321 960,326 955,327 955,356 960,357 960,362 943,362 943,357 947,356 947,348 948,330 947,330 935,361 929,361 917,330 917,330 917,348 917,356 922,357 922,362 "/>
  <path id="69" class="fil2 str0" d="M959 362l0 -5 3 0 13 -36 9 0 12 36 3 0 0 5 -14 0 0 -5 3 0 -2 -6 -14 0 -2 6 3 0 0 5 -14 0zm15 -17l11 0 -5 -14 -1 -1 0 0 0 1 -5 14z"/>
  <polygon id="70" class="fil2 str0" points="1002,362 1002,357 1006,356 1006,327 1002,326 1002,321 1006,321 1014,321 1032,349 1032,349 1032,327 1027,326 1027,321 1039,321 1044,321 1044,326 1039,327 1039,362 1032,362 1014,334 1013,334 1013,356 1019,357 1019,362 "/>
  <path id="71" class="fil2 str0" d="M1066 362c-4,0 -8,0 -11,-2 -2,-2 -5,-4 -6,-7 -2,-3 -3,-7 -3,-11l0 -1c0,-4 1,-7 3,-10 1,-3 3,-6 6,-8 3,-1 6,-2 10,-2 3,0 6,0 8,1 2,1 5,2 6,4l0 9 -6 0 0 -6c-1,0 -2,-1 -2,-1 -1,0 -2,0 -3,-1 -1,0 -2,0 -3,0 -2,0 -4,1 -5,2 -2,1 -3,3 -4,5 -1,2 -2,4 -2,7l0 1c0,3 1,6 2,8 1,2 2,3 4,5 1,1 4,1 6,1 1,0 2,0 3,0 2,0 3,-1 4,-1l0 -6 6 0 0 10c-1,1 -3,2 -5,2 -3,1 -5,1 -8,1z"/>
  <polygon id="72" class="fil2 str0" points="1083,362 1083,357 1087,356 1087,327 1083,326 1083,321 1115,321 1115,332 1108,332 1108,328 1096,328 1096,338 1109,338 1109,344 1096,344 1096,356 1109,356 1109,351 1115,351 1115,362 "/>
  <path id="73" class="fil2 str0" d="M1153 362c-4,0 -8,0 -11,-2 -2,-2 -5,-4 -6,-7 -2,-3 -3,-7 -3,-11l0 -1c0,-4 1,-7 3,-10 1,-3 3,-6 6,-8 3,-1 6,-2 10,-2 3,0 6,0 8,1 2,1 5,2 6,4l0 9 -6 0 0 -6c-1,0 -2,-1 -2,-1 -1,0 -2,0 -3,-1 -1,0 -2,0 -3,0 -2,0 -4,1 -5,2 -2,1 -3,3 -4,5 -1,2 -2,4 -2,7l0 1c0,3 1,6 2,8 1,2 2,3 4,5 1,1 3,1 6,1 1,0 2,0 3,0 2,0 3,-1 4,-1l0 -6 6 0 0 10c-1,1 -3,2 -5,2 -3,1 -5,1 -8,1z"/>
  <path id="74" class="fil2 str0" d="M1189 362c-3,0 -6,0 -8,-1 -2,-1 -4,-3 -6,-4 -1,-2 -2,-4 -3,-7 -1,-2 -2,-5 -2,-8l0 -1c0,-3 1,-5 2,-8 1,-2 2,-4 3,-6 2,-2 4,-4 6,-5 2,-1 5,-1 8,-1 2,0 5,0 7,1 2,1 4,3 6,5 2,2 3,4 4,6 1,3 1,5 1,8l0 1c0,3 0,6 -1,8 -1,3 -2,5 -4,7 -2,1 -4,3 -6,4 -2,1 -5,1 -7,1zm0 -6c2,0 4,0 5,-2 2,-1 3,-2 4,-5 1,-2 1,-4 1,-7l0 -1c0,-3 0,-5 -1,-7 -1,-2 -2,-4 -4,-5 -1,-1 -3,-2 -5,-2 -3,0 -5,1 -6,2 -2,1 -3,3 -3,5 -1,2 -2,4 -2,7l0 1c0,3 1,5 2,7 0,3 1,4 3,5 2,2 3,2 6,2z"/>
  <polygon id="75" class="fil2 str0" points="1210,362 1210,357 1215,356 1215,327 1210,326 1210,321 1215,321 1227,321 1238,350 1238,350 1248,321 1265,321 1265,326 1260,327 1260,356 1265,357 1265,362 1248,362 1248,357 1253,356 1253,348 1253,330 1253,330 1240,361 1234,361 1222,330 1222,330 1222,348 1222,356 1227,357 1227,362 "/>
  <path id="76" class="fil2 str0" d="M1268 362l0 -5 4 -1 0 -29 -4 -1 0 -5 4 0 15 0c3,0 6,1 8,2 2,1 4,3 5,5 1,2 2,4 2,6 0,3 -1,5 -2,7 -1,2 -3,4 -5,5 -2,1 -5,1 -8,1l-7 0 0 9 4 1 0 5 -16 0zm12 -21l7 0c2,0 4,-1 5,-2 1,-1 2,-3 2,-5 0,-2 -1,-3 -2,-4 -1,-2 -3,-2 -5,-2l-7 0 0 13z"/>
  <path id="77" class="fil2 str0" d="M1325 362c-4,0 -7,0 -9,-1 -2,-1 -4,-3 -6,-5 -1,-2 -2,-5 -2,-8l0 -21 -4 -1 0 -5 17 0 0 5 -5 1 0 21c0,2 1,4 1,5 1,1 2,2 3,2 1,1 3,1 5,1 1,0 3,0 4,-1 1,0 2,-1 3,-2 0,-1 1,-3 1,-5l0 -21 -5 -1 0 -5 17 0 0 5 -4 1 0 21c0,3 -1,6 -2,8 -2,2 -4,4 -6,5 -2,1 -5,1 -8,1z"/>
  <polygon id="78" class="fil2 str0" points="1357,362 1357,357 1361,356 1361,328 1354,328 1354,333 1347,333 1347,321 1383,321 1383,333 1377,333 1377,328 1369,328 1369,356 1374,357 1374,362 "/>
  <polygon id="79" class="fil2 str0" points="1386,362 1386,357 1391,356 1391,327 1386,326 1386,321 1403,321 1403,326 1399,327 1399,356 1403,357 1403,362 "/>
  <polygon id="80" class="fil2 str0" points="1406,362 1406,357 1410,356 1410,327 1406,326 1406,321 1410,321 1419,321 1436,349 1436,349 1436,327 1431,326 1431,321 1444,321 1448,321 1448,326 1444,327 1444,362 1436,362 1418,334 1418,334 1418,356 1423,357 1423,362 "/>
  <path id="81" class="fil2 str0" d="M1469 362c-4,0 -7,0 -10,-2 -3,-2 -5,-4 -6,-7 -2,-3 -3,-6 -3,-10l0 -2c0,-4 1,-7 3,-10 1,-3 3,-6 6,-8 3,-1 6,-2 10,-2 3,0 5,0 8,1 3,1 5,2 7,4l0 9 -6 0 -1 -6c-1,0 -2,-1 -3,-1 -2,-1 -3,-1 -5,-1 -2,0 -4,1 -5,2 -2,1 -3,3 -4,5 -1,2 -1,4 -1,7l0 2c0,2 0,5 1,7 1,2 2,3 4,5 1,1 3,1 6,1 1,0 2,0 4,0 1,0 2,-1 3,-1l0 -7 -6 0 0 -6 14 0 0 16c-2,1 -4,3 -7,3 -2,1 -5,1 -9,1z"/>
  <path id="82" class="fil2 str0" d="M1522 362c-4,0 -7,0 -10,-2 -3,-2 -5,-4 -7,-7 -2,-3 -2,-7 -2,-11l0 -1c0,-4 0,-7 2,-10 1,-3 4,-6 7,-8 2,-1 6,-2 10,-2 2,0 5,0 7,1 3,1 5,2 7,4l0 9 -6 0 -1 -6c-1,0 -1,-1 -2,-1 -1,0 -2,0 -2,-1 -1,0 -2,0 -3,0 -2,0 -4,1 -6,2 -2,1 -3,3 -4,5 -1,2 -1,4 -1,7l0 1c0,3 0,6 1,8 1,2 2,3 4,5 2,1 4,1 6,1 1,0 3,0 4,0 1,0 2,-1 3,-1l1 -6 6 0 0 10c-2,1 -4,2 -6,2 -2,1 -5,1 -8,1z"/>
  <path id="83" class="fil2 str0" d="M1558 362c-3,0 -5,0 -7,-1 -3,-1 -5,-3 -6,-4 -2,-2 -3,-4 -4,-7 -1,-2 -1,-5 -1,-8l0 -1c0,-3 0,-5 1,-8 1,-2 2,-4 4,-6 1,-2 3,-4 6,-5 2,-1 4,-1 7,-1 3,0 5,0 7,1 3,1 5,3 6,5 2,2 3,4 4,6 1,3 1,5 1,8l0 1c0,3 0,6 -1,8 -1,3 -2,5 -4,7 -1,1 -3,3 -6,4 -2,1 -4,1 -7,1zm0 -6c2,0 4,0 6,-2 1,-1 2,-2 3,-5 1,-2 1,-4 1,-7l0 -1c0,-3 0,-5 -1,-7 -1,-2 -2,-4 -3,-5 -2,-1 -4,-2 -6,-2 -2,0 -4,1 -6,2 -1,1 -2,3 -3,5 -1,2 -1,4 -1,7l0 1c0,3 0,5 1,7 1,3 2,4 3,5 2,2 4,2 6,2z"/>
  <polygon id="84" class="fil2 str0" points="1580,362 1580,357 1584,356 1584,327 1580,326 1580,321 1584,321 1592,321 1610,349 1610,349 1610,327 1605,326 1605,321 1617,321 1622,321 1622,326 1617,327 1617,362 1609,362 1591,334 1591,334 1591,356 1596,357 1596,362 "/>
  <polygon id="85" class="fil2 str0" points="1624,362 1624,357 1629,356 1629,327 1624,326 1624,321 1656,321 1656,333 1650,333 1650,328 1637,328 1637,339 1651,339 1651,345 1637,345 1637,356 1641,357 1641,362 "/>
  <polygon id="86" class="fil2 str0" points="1659,362 1659,357 1664,356 1664,327 1659,326 1659,321 1691,321 1691,332 1685,332 1684,328 1672,328 1672,338 1685,338 1685,344 1672,344 1672,356 1685,356 1685,351 1691,351 1691,362 "/>
  <path id="87" class="fil2 str0" d="M1696 362l0 -5 4 -1 0 -29 -4 -1 0 -5 19 0c3,0 6,1 8,2 2,1 4,2 5,4 1,2 2,4 2,6 0,3 -1,5 -2,7 -1,2 -3,3 -5,4 -2,1 -4,2 -7,2l-8 0 0 10 4 1 0 5 -16 0zm26 0l-7 -18 7 -1 6 13 4 1 0 5 -10 0zm-14 -22l7 0c2,0 4,-1 5,-2 1,-1 2,-2 2,-4 0,-2 -1,-4 -2,-5 -1,-1 -3,-1 -5,-1l-7 0 0 12z"/>
  <polygon id="88" class="fil2 str0" points="1735,362 1735,357 1739,356 1739,327 1735,326 1735,321 1766,321 1766,332 1760,332 1760,328 1747,328 1747,338 1761,338 1761,344 1747,344 1747,356 1760,356 1761,351 1767,351 1767,362 "/>
  <polygon id="89" class="fil2 str0" points="1771,362 1771,357 1775,356 1775,327 1771,326 1771,321 1775,321 1784,321 1801,349 1801,349 1801,327 1796,326 1796,321 1809,321 1813,321 1813,326 1809,327 1809,362 1801,362 1783,334 1783,334 1783,356 1788,357 1788,362 "/>
  <path id="90" class="fil2 str0" d="M1835 362c-4,0 -7,0 -10,-2 -3,-2 -5,-4 -7,-7 -2,-3 -2,-7 -2,-11l0 -1c0,-4 0,-7 2,-10 1,-3 4,-6 6,-8 3,-1 7,-2 11,-2 2,0 5,0 7,1 3,1 5,2 7,4l0 9 -6 0 -1 -6c-1,0 -1,-1 -2,-1 -1,0 -2,0 -3,-1 0,0 -1,0 -2,0 -3,0 -5,1 -6,2 -2,1 -3,3 -4,5 -1,2 -1,4 -1,7l0 1c0,3 0,6 1,8 1,2 2,3 4,5 2,1 4,1 6,1 1,0 2,0 4,0 1,0 2,-1 3,-1l1 -6 6 0 0 10c-2,1 -4,2 -6,2 -3,1 -5,1 -8,1z"/>
  <polygon id="91" class="fil2 str0" points="1852,362 1852,357 1857,356 1857,327 1852,326 1852,321 1884,321 1884,332 1878,332 1877,328 1865,328 1865,338 1879,338 1879,344 1865,344 1865,356 1878,356 1878,351 1884,351 1884,362 "/>
 </g>
</svg>
